<?xml version="1.0" encoding="UTF-8"?>
<svg width="702px" height="37px" viewBox="0 0 702 37" version="1.1" xmlns="http://www.w3.org/2000/svg" xmlns:xlink="http://www.w3.org/1999/xlink">
    <title>979F7D35-1834-4022-B9B9-13EF1042025E</title>
    <defs>
        <polygon id="path-1" points="10.9458985 0 10.9458985 15.2839593 0 15.2839593 0 0"></polygon>
        <polygon id="path-3" points="0 0 3.4107367 0 3.4107367 3.43182018 0 3.43182018"></polygon>
        <path d="M0,2.23693543 L4.45597044,2.23693543 C4.41137029,1.02931449 3.86369845,0 2.36549297,0 L2.36549297,0 C0.99142646,0 0.231201774,0.871743797 0,2.23693543" id="path-5"></path>
        <path d="M18.398039,0 C8.23706936,0 0,8.28276323 0,18.5 L0,18.5 C0,28.7172368 8.23706936,37 18.398039,37 L18.398039,37 C28.5589064,37 36.7960781,28.7172368 36.7960781,18.5 L36.7960781,18.5 C36.7960781,8.28276323 28.5589064,0 18.398039,0 Z M32.1567515,22.8637366 C30.2521966,22.8637366 29.4810398,21.8299817 29.4810398,20.1653471 L29.4810398,20.1653471 L29.4810398,10.9388091 L31.5216269,10.9388091 L31.5216269,13.6003515 L34.1396095,13.6003515 L34.1396095,15.1489483 L31.5216269,15.1489483 L31.5216269,19.8411536 C31.5216269,20.7578527 31.7731178,21.1789482 32.520835,21.1789482 L32.520835,21.1789482 L34.8171098,21.1789482 L34.8171098,22.8675028 L32.1567515,22.8637366 Z M20.0567327,18.1729564 C20.0567327,15.3410216 21.921266,13.3700062 24.4618667,13.3700062 L24.4618667,13.3700062 C27.1942842,13.3700062 28.6000539,15.3410216 28.3094626,18.5365417 L28.3094626,18.5365417 L22.2121643,18.5365417 C22.3065374,20.2168516 23.0781037,21.5013094 24.8476498,21.5013094 L24.8476498,21.5013094 C26.1365279,21.5013094 26.9246761,21.0226024 27.3492526,20.773121 L27.3492526,20.773121 L28.0601212,22.1698505 C27.520598,22.4949601 26.5215946,23.0900105 24.7125387,23.0900105 L24.7125387,23.0900105 C21.6713104,23.0900105 20.0567327,21.0230095 20.0567327,18.1729564 L20.0567327,18.1729564 Z M16.1494626,13.3700062 C18.1517684,13.3700062 18.9211852,14.6725823 18.9211852,16.3169612 L18.9211852,16.3169612 L18.9211852,22.8595633 L16.8800862,22.8595633 L16.8800862,22.859258 L16.8800862,16.7371404 C16.8800862,15.7047087 16.5154909,15.1111851 15.4557899,15.1111851 L15.4557899,15.1111851 C14.2843152,15.1111851 13.3988256,16.2593493 13.205064,16.5085254 L13.205064,16.5085254 L13.205064,22.859258 L11.1469737,22.859258 L11.1469737,13.6003515 L13.167192,13.6003515 L13.167192,14.8431783 C13.6283098,14.2879269 14.5722451,13.3700062 16.1494626,13.3700062 L16.1494626,13.3700062 Z M2.51429495,18.2288378 C2.51429495,15.0905222 4.53727677,13.3700062 7.13335489,13.3700062 L7.13335489,13.3700062 C8.65345723,13.3700062 9.53853738,13.8864765 9.97959327,14.1919412 L9.97959327,14.1919412 L9.23034074,15.6286733 C8.76819933,15.3221908 8.17197037,14.9767237 7.16958922,14.9767237 L7.16958922,14.9767237 C5.4786532,14.9767237 4.66962424,16.3169612 4.66962424,18.17316 L4.66962424,18.17316 C4.66962424,20.0092049 5.4786532,21.4645642 7.20991784,21.4645642 L7.20991784,21.4645642 C8.32632458,21.4645642 9.05653872,20.9845338 9.34518519,20.813836 L9.34518519,20.813836 L10.0185913,22.2110745 C9.63352458,22.5166409 8.72981549,23.0897052 7.05505186,23.0897052 L7.05505186,23.0897052 C4.18793266,23.0897052 2.51429495,20.9641762 2.51429495,18.2288378 L2.51429495,18.2288378 Z" id="path-7"></path>
        <polygon id="path-9" points="0 0 0 13.2346462 10.1675417 13.2346462 10.1675417 0"></polygon>
        <polygon id="path-11" points="7.00860823 11.6129882 0 11.6129882 0 0 7.00860823 0"></polygon>
        <polygon id="path-13" points="12.4741554 11.212017 12.4741554 0 0 0 0 11.212017"></polygon>
        <polygon id="path-15" points="0 0 14.1081339 0 14.1081339 19.7145833 0 19.7145833"></polygon>
        <polygon id="path-17" points="0 0 55.6656284 0 55.6656284 20.3374904 0 20.3374904"></polygon>
    </defs>
    <g id="Page-1" stroke="none" stroke-width="1" fill="none" fill-rule="evenodd">
        <g id="LCUS-Homepage" transform="translate(-442.000000, -4794.000000)">
            <g id="Group-10-Copy" transform="translate(0.000000, 4760.000000)">
                <g id="Group-17" transform="translate(296.000000, 34.000000)">
                    <g id="Group-10" transform="translate(146.000000, 0.000000)">
                        <g id="forbes" transform="translate(0.000000, 7.000000)">
                            <g id="Fill-8-Clipped" transform="translate(68.054102, 5.698960)">
                                <mask id="mask-2" fill="white">
                                    <use xlink:href="#path-1"></use>
                                </mask>
                                <g id="path-1"></g>
                                <path d="M10.5684924,8.47689145 C10.0849822,7.50366286 9.19512445,6.83795276 7.33046509,6.05393286 C5.80795894,5.41432049 5.04367987,4.97044127 4.57702871,4.45675056 C4.19856359,4.04027397 4.08789876,3.70361299 4.12464294,3.07987677 C4.15857728,2.50485634 4.29863746,2.16232338 4.6567852,1.77651164 C5.11673596,1.28195928 5.74938439,1.10906168 6.50653076,1.26978032 C7.74891652,1.53423753 8.54583307,2.40024787 9.23230092,4.22948265 C9.47719011,4.8819264 9.50593704,4.9028046 9.94578655,4.73860625 L10.2239617,4.63443274 L10.2148837,3.88238258 C10.209264,3.46873325 10.1882982,2.60033061 10.1677647,1.95245397 L10.1310205,0.774575522 L9.9235239,0.686060655 C8.78726398,0.201947393 6.61935702,-0.099481619 5.206435,0.0301372062 C3.60244321,0.177589493 2.4242517,0.690192798 1.51775102,1.63536631 C0.616221611,2.5748853 0.209009575,3.67751524 0.281633377,4.98544748 C0.341504787,6.06741669 0.659233924,6.84491215 1.32235841,7.5275858 C1.93685088,8.15980379 2.45256634,8.45949296 3.93184403,9.04082033 C6.31978383,9.97925192 6.95221611,10.535134 6.94638028,11.6921343 C6.94248971,12.66906 6.42720654,13.3841384 5.48893294,13.7175372 C5.15369629,13.8367169 4.30490559,13.8356294 3.85208754,13.7157972 C2.66568262,13.4011019 1.75680437,12.3667611 0.982366616,10.448359 L0.783948013,9.95663388 L0.550514361,9.96750794 C0.423206564,9.97337993 0.246402188,10.012744 0.15908071,10.0549354 L0,10.1312713 L0.0149138166,10.9696615 C0.0229110806,11.4307218 0.0458221607,12.4026455 0.0659233925,13.1299028 L0.102235294,14.4511014 L0.367225716,14.5654966 C0.909958956,14.8003763 2.53988781,15.1598727 3.56461832,15.2701358 C3.69106155,15.2836196 4.38963336,15.2879692 5.11673596,15.2799224 C6.37879068,15.2662211 6.46978656,15.2581743 7.10459641,15.0909312 C8.97833375,14.5985537 10.1906757,13.5479018 10.7282216,11.9524593 C10.8933543,11.462909 10.9162654,11.3132819 10.940041,10.5842848 C10.9713817,9.61301351 10.882331,9.10845701 10.5684924,8.47689145" id="Fill-8" fill="#FFFFFF" fill-rule="nonzero" mask="url(#mask-2)"></path>
                            </g>
                            <path d="M59.9406895,11.4478709 L58.8626106,11.4652122 L58.8639075,11.2287994 C58.8645559,11.0990687 58.9006504,10.7566324 58.9449579,10.467537 C59.3041734,8.11592115 60.1678468,6.7046882 61.2485192,6.70358935 C62.2431701,6.7024931 62.8559114,8.09265304 62.9829983,10.6374382 L63.0193089,11.3591887 L62.0188225,11.3947493 C61.4687603,11.4140663 60.5333302,11.4377734 59.9406895,11.4478709 M64.2266361,6.124961 C62.6473416,5.32089407 60.2078317,5.37928386 58.4238577,6.26215505 C56.7336861,7.09936806 55.570018,8.49567429 54.9209662,10.46622 C54.5822834,11.4926511 54.4759453,12.319108 54.5098784,13.6495611 C54.5319241,14.4909448 54.5690993,14.9255756 54.6553369,15.3143287 C55.3216795,18.3354516 57.3613406,20.3896308 60.2138834,20.9122852 C60.841538,21.0273088 62.2673772,21.0295038 62.9019479,20.9171144 C63.8081998,20.7557742 64.85321,20.3463872 65.5122041,19.8944151 C66.3164405,19.3427852 67.1414258,18.5130356 67.1414258,18.2555497 C67.1414258,18.0983802 66.8649897,17.7368464 66.744819,17.7368464 C66.6925144,17.7368464 66.4688153,17.8553821 66.2487904,18.0004785 C65.4616286,18.5165477 64.7094807,18.7290338 63.6633897,18.7290338 C62.2202598,18.7290338 61.3053626,18.3635489 60.3863587,17.4211904 C59.9791614,17.0036814 59.8118734,16.7782442 59.6009261,16.3646863 C59.137966,15.4556934 58.8874661,14.4092869 58.8500749,13.2267839 L58.8338647,12.715983 L63.0882558,12.7014953 L67.3426469,12.6863491 L67.3616667,12.3944001 C67.3720412,12.2337185 67.3512924,11.8133558 67.3156302,11.4601635 C67.050217,8.83591556 66.0043423,7.02934422 64.2266361,6.124961" id="Fill-11" fill="#FFFFFF" fill-rule="nonzero"></path>
                            <path d="M44.7700023,19.6422136 C44.697742,19.4482562 44.6121317,12.6842639 44.6470964,9.98209497 L44.6748562,7.87286278 L45.0484478,7.76026337 C45.2976501,7.68519709 45.5907172,7.64766394 45.9316752,7.64766394 C46.4084653,7.64766394 46.4705541,7.6621999 46.8725411,7.86526937 C47.8413788,8.35602058 48.5054946,9.5742204 48.8150904,11.4272293 C48.9288843,12.1121548 48.9428701,13.9831709 48.8396716,14.803693 C48.5866549,16.8196348 47.9430941,18.4459262 47.0874146,19.234339 C46.745609,19.5487062 46.4271131,19.7155442 46.0181331,19.7951665 C45.720828,19.8524425 45.6318271,19.8541782 45.0946434,19.8107872 C44.8664199,19.79278 44.8161979,19.7663115 44.7700023,19.6422136 M48.7866949,6.02267432 C48.4542132,5.95216409 48.1543651,5.93784509 47.5072019,5.96084228 C46.5347618,5.995555 45.8653483,6.14503669 45.1391439,6.48847576 C44.897994,6.60215994 44.6875705,6.6954504 44.6718895,6.6954504 C44.6555727,6.6954504 44.6579036,5.18935188 44.6771871,3.3482755 C44.7038874,0.754149875 44.6966826,0.00110060936 44.6443416,5.25905879e-06 C44.4606184,-0.00280457266 38.7037475,1.12123699 38.6405993,1.17265521 C38.5937679,1.21062227 38.5734249,1.33537113 38.5842321,1.52412159 C38.602668,1.85193993 38.5649486,1.82590539 39.2667837,1.98753653 C39.4782667,2.03591739 39.7249262,2.13007568 39.8164699,2.19646377 C40.050415,2.367207 40.2453692,2.73668061 40.37993,3.26691755 C40.4865191,3.68477202 40.5007169,3.9837354 40.550303,6.81087022 C40.6005249,9.69701669 40.5903534,12.6645211 40.5130075,18.1003175 L40.4810095,20.3585975 L40.893592,20.4542745 C41.4905333,20.5933424 43.1995613,20.8849292 43.7587832,20.9424222 C44.5790742,21.0279023 46.4908971,21.0157528 47.0997052,20.9222454 C49.7434539,20.5143709 51.7360132,18.9444877 52.6648005,16.5380277 C52.9106123,15.9003983 53.1473121,14.9182451 53.2301677,14.1886269 C53.327221,13.3327412 53.2731847,11.6246579 53.1265453,10.9373459 C52.5649924,8.30221584 50.9581034,6.48261798 48.7866949,6.02267432" id="Fill-13" fill="#FFFFFF" fill-rule="nonzero"></path>
                            <path d="M38.2644961,5.55883128 C37.6144604,5.55883128 37.2636809,5.63269638 36.7373014,5.87970301 C35.7789667,6.32935414 35.0584807,7.06606704 34.4158056,8.25286176 L34.2149696,8.62347939 L34.2406262,7.96472324 C34.2547162,7.60271963 34.2786904,6.92565873 34.2938319,6.46093309 L34.3207503,5.61611442 L34.1823732,5.61611442 C34.0057217,5.61611442 28.4637,6.75036371 28.2965119,6.8207832 C28.1873665,6.86665278 28.1705425,6.91596797 28.1705425,7.18924732 C28.1705425,7.46984858 28.1846326,7.50710416 28.2965119,7.53122338 C28.3659107,7.54608254 28.6203731,7.59690517 28.8620071,7.64449756 C29.3520048,7.74075909 29.4979527,7.81871584 29.7000505,8.0924259 C30.0724909,8.59763737 30.1492502,9.48897167 30.1452545,13.2636293 C30.1418897,16.3493816 30.0792204,17.8863357 29.9366374,18.3669973 C29.7610374,18.9561954 29.4500045,19.2576856 28.9084834,19.361269 C28.7333039,19.3946483 28.5017642,19.4415946 28.3943011,19.4650678 L28.1985124,19.5074918 L28.1818987,19.9033054 C28.1701219,20.181107 28.1869459,20.3133321 28.237628,20.346496 C28.2773747,20.3725533 30.1732243,20.3878433 32.4501366,20.3805213 L36.5896711,20.3667389 L36.6058642,19.9229022 C36.6146968,19.6786951 36.6024994,19.4788502 36.5778943,19.4788502 C36.2561362,19.4782041 35.2710935,19.3401647 35.1154719,19.2736215 C34.6483968,19.0737765 34.4225352,18.6447991 34.3251666,17.773923 C34.2105534,16.7514404 34.1428369,14.2092318 34.1741716,12.1248576 C34.2059267,10.0200252 34.2065577,10.0114112 34.3352609,9.87057215 C34.6351479,9.54130176 35.3947496,9.28460437 36.0748581,9.28331227 C36.6216366,9.28180482 37.1837671,9.42608943 37.7839617,9.72047309 C38.0714412,9.86195815 38.3366288,9.96575693 38.3730106,9.95132846 C38.4478772,9.92225619 39.8062014,6.24730573 39.8062014,6.07394885 C39.8062014,5.81660541 39.0354538,5.55883128 38.2644961,5.55883128" id="Fill-1" fill="#FFFFFF" fill-rule="nonzero"></path>
                            <path d="M21.7614851,19.8102668 C20.1984211,20.2835992 19.0791211,18.7641958 18.6456771,15.5801196 C18.5054959,14.5509454 18.5061409,11.7473784 18.6469672,10.5707405 C18.9529149,8.01053266 19.7271369,6.70991107 20.9477028,6.70814264 C21.4972478,6.70705834 21.8025504,6.84486674 22.2327694,7.2865997 C23.2563935,8.33903452 23.7418678,10.3488866 23.7339128,13.5077271 C23.7283227,16.0284357 23.4823605,17.6154267 22.9321706,18.6889278 C22.6662132,19.2090009 22.1663337,19.6869415 21.7614851,19.8102668 M28.1268322,12.0497669 C27.8277644,9.45927634 26.7518948,7.56331369 24.9755489,6.49639583 C23.0020462,5.31076085 20.0027694,5.24185666 17.8718852,6.33401014 C16.3329014,7.12201961 15.0757851,8.64098413 14.5172102,10.3848748 C13.94122,12.1851615 13.94122,14.5476538 14.5176401,16.385026 C14.8870135,17.5618833 15.387968,18.4209914 16.1606849,19.2021983 C17.0866982,20.1383298 18.2997391,20.7371819 19.6867165,20.9438944 C20.182941,21.0174069 21.7494449,21.0191624 22.2624395,20.9463083 C22.5053917,20.9118562 22.9252905,20.8177164 23.196408,20.7378402 C25.7099955,19.994816 27.4263558,18.0227076 28.0152462,15.2007077 C28.1588674,14.5114462 28.218423,12.8406291 28.1268322,12.0497669" id="Fill-3" fill="#FFFFFF" fill-rule="nonzero"></path>
                            <path d="M7.38380027,2.23122257 L9.14120814,2.23122257 C11.1606211,2.23122257 11.4910667,2.27522465 12.2065423,2.63922212 C13.2430161,3.16702934 14.0008996,4.21240566 14.6615809,6.02651153 C14.930514,6.76539806 14.9273649,6.76300191 15.5252741,6.57414146 L15.9224806,6.448888 L15.8861609,3.77543444 C15.8660066,2.30484982 15.833676,0.996985798 15.8135217,0.869554011 L15.7772021,0.637780639 L8.07240351,0.62144323 C3.83497426,0.612294281 0.2848886,0.620354069 0.183697513,0.6388698 L0,0.673069442 L0.0161653812,1.14772562 L0.0323307623,1.62281746 L0.618693224,1.69579123 C1.37993572,1.79033036 1.83445585,2.01230129 2.10422877,2.42008301 C2.71242499,3.34020587 2.82243356,4.59230487 2.82138386,10.5460923 C2.82012422,16.8858782 2.69290058,18.4252977 2.10527847,19.2249595 C1.80212509,19.6370978 1.55649527,19.7725894 0.870201362,19.9045956 C-0.0251928018,20.076683 0.00461868033,20.0553354 0.00461868033,20.5356552 C0.00461868033,20.8027175 0.027922022,20.9469224 0.0743187653,20.966745 C0.174880033,21.0092223 10.0303041,21.0118362 10.135694,20.9697947 C10.2704755,20.9164258 10.2624978,20.1607662 10.1262467,20.0877924 C10.072712,20.0588208 9.73932724,19.9904215 9.38641807,19.9353099 C9.03287908,19.8804163 8.64323042,19.7900159 8.52020557,19.7342509 C7.87464002,19.4427915 7.5156426,18.6368127 7.38044123,17.177991 C7.28386882,16.1313077 7.20850035,14.2034935 7.20850035,12.7780002 L7.20850035,11.4705718 L7.80871886,11.4893053 C9.08704361,11.5293865 9.74835466,11.5995284 10.0151884,11.7219501 C10.5937831,11.9872696 11.0617394,12.7276809 11.30464,13.7619478 L11.434173,14.3124095 L11.8899528,14.3294005 L12.3461524,14.3461735 L12.3461524,7.38360561 L11.8903726,7.40037868 L11.434173,7.41715176 L11.3012809,7.96717784 C11.0432647,9.03281256 10.622125,9.68739806 10.0030119,9.9847389 C9.75108388,10.1058536 9.57242493,10.1387462 8.96968714,10.1764312 C8.56933153,10.2008284 8.00921157,10.2228294 7.72495279,10.2245721 L7.20850035,10.2274039 L7.20787053,8.50369835 C7.20724071,6.775854 7.29667516,3.10625418 7.3535689,2.53531621 L7.38380027,2.23122257 Z" id="Fill-5" fill="#FFFFFF" fill-rule="nonzero"></path>
                        </g>
                        <g id="cnet" transform="translate(129.000000, 0.000000)">
                            <g id="Fill-1-Clipped" transform="translate(34.589263, 27.743104)">
                                <mask id="mask-4" fill="white">
                                    <use xlink:href="#path-3"></use>
                                </mask>
                                <g id="path-1"></g>
                                <path d="M2.02781818,1.06147655 C1.94401347,1.014134 1.80800674,0.989562185 1.62542761,0.989562185 L1.34458586,0.989562185 L1.34458586,1.67126915 L1.64513131,1.67126915 C1.7829293,1.67126915 1.88682155,1.65686056 1.95668014,1.6279147 C2.08577778,1.57812784 2.15052113,1.47803951 2.15052113,1.33421079 C2.15090235,1.1992588 2.10906397,1.10573154 2.02781818,1.06147655 L2.02781818,1.06147655 Z M1.67187205,0.762112114 C1.90396633,0.762112114 2.07375084,0.785783389 2.18212121,0.83003838 C2.37672727,0.911987303 2.47140741,1.07112516 2.47140741,1.30655142 C2.47140741,1.4753379 2.41178451,1.60141317 2.28959596,1.67937399 C2.2239596,1.72157062 2.13324579,1.75128835 2.01911785,1.77251532 C2.16523233,1.79309903 2.27155555,1.85613666 2.34026263,1.95571039 C2.40935354,2.05502683 2.44172391,2.15421461 2.44172391,2.24825647 L2.44172391,2.38603873 C2.44172391,2.42823534 2.4433872,2.474806 2.44620202,2.5254934 C2.44978451,2.57528027 2.45541414,2.60499801 2.46142761,2.62185092 L2.47447811,2.64963894 L2.16574411,2.64963894 L2.15973064,2.62673956 L2.15448484,2.60461206 L2.14885522,2.54556252 L2.14885522,2.39607328 C2.14885522,2.18071614 2.08936027,2.03572959 1.97267341,1.96497306 C1.90396633,1.92650725 1.77973064,1.90553759 1.60470034,1.90553759 L1.34496969,1.90553759 L1.34496969,2.65002489 L1.01499663,2.65002489 L1.01499663,0.763012652 L1.67187205,0.763012652 L1.67187205,0.762112114 Z M0.665063973,0.666140535 C0.3816633,0.955856348 0.237851852,1.3041071 0.237851852,1.71192199 C0.237851852,2.12205256 0.380127947,2.4715898 0.662505051,2.76207749 C0.949872054,3.05372303 1.29430303,3.19755176 1.70181144,3.19755176 C2.10944781,3.19755176 2.45541414,3.05372303 2.74226936,2.76207749 C3.02720538,2.47120385 3.17024916,2.12205256 3.17024916,1.71192199 C3.17024916,1.3041071 3.02720538,0.955856348 2.74226936,0.666140535 C2.45541414,0.377711203 2.10944781,0.231438166 1.70181144,0.231438166 C1.29903704,0.231438166 0.95230303,0.377711203 0.665063973,0.666140535 L0.665063973,0.666140535 Z M2.91243771,2.92764776 C2.57849832,3.26148993 2.17521212,3.43182018 1.70181144,3.43182018 C1.22994613,3.43182018 0.829602694,3.26148993 0.496686869,2.92764776 C0.167481482,2.59367696 0,2.1875345 0,1.70986363 C0,1.23823921 0.168760943,0.832868641 0.500013468,0.499412428 C0.832289562,0.166342162 1.23224916,0 1.70181144,0 C2.17572391,0 2.57849832,0.166342162 2.91243771,0.499412428 C3.24535354,0.832868641 3.41078787,1.23656679 3.41078787,1.70986363 C3.41078787,2.18547613 3.24535354,2.5905894 2.91243771,2.92764776 L2.91243771,2.92764776 Z" id="Fill-1" fill="#FFFFFF" fill-rule="nonzero" mask="url(#mask-4)"></path>
                            </g>
                            <g id="Fill-4-Clipped" transform="translate(21.942374, 15.008415)">
                                <mask id="mask-6" fill="white">
                                    <use xlink:href="#path-5"></use>
                                </mask>
                                <g id="path-3"></g>
                                <path d="M0,2.23693543 L4.45597044,2.23693543 C4.41137029,1.02931449 3.86369845,0 2.36549297,0 L2.36549297,0 C0.99142646,0 0.231201774,0.871743797 0,2.23693543" id="Fill-4" fill="#FFFFFF" fill-rule="nonzero" mask="url(#mask-6)"></path>
                            </g>
                            <g id="Fill-7-Clipped">
                                <mask id="mask-8" fill="white">
                                    <use xlink:href="#path-7"></use>
                                </mask>
                                <g id="path-5"></g>
                                <path d="M18.398039,0 C8.23706936,0 0,8.28276323 0,18.5 L0,18.5 C0,28.7172368 8.23706936,37 18.398039,37 L18.398039,37 C28.5589064,37 36.7960781,28.7172368 36.7960781,18.5 L36.7960781,18.5 C36.7960781,8.28276323 28.5589064,0 18.398039,0 Z M32.1567515,22.8637366 C30.2521966,22.8637366 29.4810398,21.8299817 29.4810398,20.1653471 L29.4810398,20.1653471 L29.4810398,10.9388091 L31.5216269,10.9388091 L31.5216269,13.6003515 L34.1396095,13.6003515 L34.1396095,15.1489483 L31.5216269,15.1489483 L31.5216269,19.8411536 C31.5216269,20.7578527 31.7731178,21.1789482 32.520835,21.1789482 L32.520835,21.1789482 L34.8171098,21.1789482 L34.8171098,22.8675028 L32.1567515,22.8637366 Z M20.0567327,18.1729564 C20.0567327,15.3410216 21.921266,13.3700062 24.4618667,13.3700062 L24.4618667,13.3700062 C27.1942842,13.3700062 28.6000539,15.3410216 28.3094626,18.5365417 L28.3094626,18.5365417 L22.2121643,18.5365417 C22.3065374,20.2168516 23.0781037,21.5013094 24.8476498,21.5013094 L24.8476498,21.5013094 C26.1365279,21.5013094 26.9246761,21.0226024 27.3492526,20.773121 L27.3492526,20.773121 L28.0601212,22.1698505 C27.520598,22.4949601 26.5215946,23.0900105 24.7125387,23.0900105 L24.7125387,23.0900105 C21.6713104,23.0900105 20.0567327,21.0230095 20.0567327,18.1729564 L20.0567327,18.1729564 Z M16.1494626,13.3700062 C18.1517684,13.3700062 18.9211852,14.6725823 18.9211852,16.3169612 L18.9211852,16.3169612 L18.9211852,22.8595633 L16.8800862,22.8595633 L16.8800862,22.859258 L16.8800862,16.7371404 C16.8800862,15.7047087 16.5154909,15.1111851 15.4557899,15.1111851 L15.4557899,15.1111851 C14.2843152,15.1111851 13.3988256,16.2593493 13.205064,16.5085254 L13.205064,16.5085254 L13.205064,22.859258 L11.1469737,22.859258 L11.1469737,13.6003515 L13.167192,13.6003515 L13.167192,14.8431783 C13.6283098,14.2879269 14.5722451,13.3700062 16.1494626,13.3700062 L16.1494626,13.3700062 Z M2.51429495,18.2288378 C2.51429495,15.0905222 4.53727677,13.3700062 7.13335489,13.3700062 L7.13335489,13.3700062 C8.65345723,13.3700062 9.53853738,13.8864765 9.97959327,14.1919412 L9.97959327,14.1919412 L9.23034074,15.6286733 C8.76819933,15.3221908 8.17197037,14.9767237 7.16958922,14.9767237 L7.16958922,14.9767237 C5.4786532,14.9767237 4.66962424,16.3169612 4.66962424,18.17316 L4.66962424,18.17316 C4.66962424,20.0092049 5.4786532,21.4645642 7.20991784,21.4645642 L7.20991784,21.4645642 C8.32632458,21.4645642 9.05653872,20.9845338 9.34518519,20.813836 L9.34518519,20.813836 L10.0185913,22.2110745 C9.63352458,22.5166409 8.72981549,23.0897052 7.05505186,23.0897052 L7.05505186,23.0897052 C4.18793266,23.0897052 2.51429495,20.9641762 2.51429495,18.2288378 L2.51429495,18.2288378 Z" id="Fill-7" fill="#FFFFFF" fill-rule="nonzero" mask="url(#mask-8)"></path>
                            </g>
                        </g>
                        <g id="business_insider" transform="translate(217.000000, 2.000000)">
                            <g id="Fill-1-Clipped">
                                <mask id="mask-10" fill="white">
                                    <use xlink:href="#path-9"></use>
                                </mask>
                                <g id="path-1"></g>
                                <path d="M1.79214165,5.05668202 C1.79214165,2.40643807 1.79214165,1.91795404 1.7566348,1.36012272 C1.72112795,0.767399689 1.57932247,0.488265958 0.993681372,0.366144949 C0.851653975,0.331471306 0.550067673,0.313807375 0.301741645,0.313807375 C0.106453973,0.313807375 -6.65753427e-05,0.278915659 -6.65753427e-05,0.157012724 C-6.65753427e-05,0.0348917164 0.124207397,0.000218073173 0.390508768,-2.26485497e-13 C1.33077452,-2.26485497e-13 2.44857453,0.0523375748 2.80364302,0.0523375748 C3.673117,0.0523375748 4.36527864,-2.26485497e-13 4.96845125,0.000218073173 C8.1802677,0.000218073173 8.74793345,1.69137595 8.74793345,2.6155703 C8.74793345,4.04547646 7.91396633,4.89966929 6.9379718,5.66706897 C8.39308687,6.15511687 10.1675417,7.39333664 10.1675417,9.4334117 C10.1675417,11.2992462 8.69467318,13.2346462 5.42959645,13.2346462 C5.21677728,13.2346462 4.70214988,13.1997545 4.18752248,13.1820905 C3.65536357,13.1474169 3.12298274,13.129971 2.85668137,13.129971 C2.6613937,13.129971 2.27104028,13.129971 1.84540192,13.1474169 C1.43707316,13.1474169 0.975927947,13.1820905 0.621081371,13.1820905 C0.39028685,13.1820905 0.266012877,13.129971 0.266012877,13.0078499 C0.266012877,12.9208387 0.337026576,12.8682831 0.550067673,12.8682831 C0.816147126,12.8682831 1.02918822,12.8333914 1.18874713,12.7984997 C1.5435937,12.7289343 1.63236083,12.3453436 1.70337452,11.8396317 C1.79214165,11.1073418 1.79214165,9.72955514 1.79214165,8.12540847 L1.79214165,5.05668202 L1.79214165,5.05668202 Z M3.92166494,5.3532616 C3.92166494,5.49282847 3.9747033,5.52772018 4.045717,5.54494797 C4.20549782,5.58005776 4.47157728,5.59728555 4.87990604,5.59728555 C5.46532522,5.59728555 5.85567865,5.52772018 6.15726494,5.26603231 C6.61863207,4.89988736 6.88471153,4.27227261 6.88471153,3.4178617 C6.88471153,2.24942535 6.1927718,0.715062115 4.66664302,0.715062115 C4.418317,0.715062115 4.25853617,0.715062115 4.08122385,0.749953831 C3.95672796,0.784845547 3.92144302,0.854628981 3.92144302,1.04631535 L3.92144302,5.3532616 L3.92166494,5.3532616 Z M6.26356358,6.74827605 C5.8911855,6.48658816 5.48285673,6.36446716 4.790917,6.32957545 C4.47135536,6.31212958 4.29404302,6.31212958 4.02796357,6.31212958 C3.95694988,6.31212958 3.92166494,6.3470213 3.92166494,6.43425059 L3.92166494,10.5667383 C3.92166494,11.7175107 3.9747033,12.0140903 4.54259097,12.2406683 C5.02148961,12.4325728 5.42959645,12.4500187 5.8377033,12.4500187 C6.6363855,12.4500187 7.98498002,12.0313181 7.98498002,10.2178211 C7.98498002,9.1368321 7.61238002,7.6722523 6.26356358,6.74827605 L6.26356358,6.74827605 Z" id="Fill-1" fill="#FFFFFF" fill-rule="nonzero" mask="url(#mask-10)"></path>
                            </g>
                            <path d="M12.5621901,6.25992263 C12.5621901,4.01071537 12.5799436,3.59201477 12.5444368,3.12119466 C12.5089299,2.59825507 12.3671244,2.4586882 11.8702504,2.31912134 C11.7459765,2.28422961 11.479897,2.26678376 11.266856,2.26678376 C11.0893217,2.26678376 11.0007765,2.21444618 11.0007765,2.10977103 C11.0007765,2.00509589 11.1070751,1.97042224 11.3378696,1.97042224 C12.1718368,1.97042224 13.2188449,2.00509589 13.6799901,2.00509589 C14.0705655,2.00509589 15.1173518,1.97042224 15.6852395,1.97042224 C15.9158121,1.97042224 16.0223327,2.00509589 16.0223327,2.10977103 C16.0223327,2.21444618 15.9335656,2.26678376 15.7740066,2.26678376 C15.5964724,2.26678376 15.5077052,2.28422961 15.3128614,2.31912134 C14.9045327,2.38890476 14.7804805,2.59825507 14.7447518,3.12119466 C14.7092449,3.59201477 14.7092449,4.01071537 14.7092449,6.25992263 L14.7092449,8.3348894 C14.7092449,10.4970854 15.1351052,11.3340505 15.8980587,11.9267735 C16.5899984,12.4675951 17.3354204,12.5197146 17.8678012,12.5197146 C18.5419874,12.5197146 19.3404477,12.3278102 19.9615957,11.7348691 C20.8310696,10.9330138 20.8665765,9.64267455 20.8665765,8.1255391 L20.8665765,6.25992263 C20.8665765,4.01071537 20.8488231,3.59201477 20.8310696,3.12119466 C20.7955628,2.61570092 20.6712888,2.4586882 20.1744148,2.31912134 C20.0503628,2.28422961 19.7840614,2.26678376 19.6065272,2.26678376 C19.4292148,2.26678376 19.3404477,2.21444618 19.3404477,2.10977103 C19.3404477,2.00509589 19.4469683,1.97042224 19.6597874,1.97042224 C20.4584696,1.97042224 21.505256,2.00509589 21.5230093,2.00509589 C21.7007656,2.00509589 22.7475518,1.97042224 23.3507245,1.97042224 C23.5637656,1.97042224 23.6702861,2.00509589 23.6702861,2.10977103 C23.6702861,2.21444618 23.5815189,2.26678376 23.4039848,2.26678376 C23.2266724,2.26678376 23.1379053,2.28422961 22.9426176,2.31912134 C22.5167573,2.38890476 22.4104587,2.59825507 22.3749518,3.12119466 C22.3571984,3.59201477 22.339445,4.01071537 22.339445,6.25992263 L22.339445,7.84662344 C22.339445,9.50310769 22.1619108,11.2470392 20.8488231,12.3105824 C19.7485545,13.2171128 18.5597409,13.3741255 17.5482395,13.3741255 C16.7320258,13.3741255 15.1173518,13.3392338 13.9817984,12.3627019 C13.1833381,11.6827496 12.5621901,10.5843148 12.5621901,8.43956455 L12.5621901,6.25992263" id="Fill-4" fill="#FFFFFF" fill-rule="nonzero"></path>
                            <path d="M25.1247132,12.9903821 C24.8761653,12.885925 24.8231269,12.8159235 24.8231269,12.4846703 C24.8231269,11.682597 24.8939187,10.7586207 24.9116721,10.5143786 C24.9116721,10.2878006 24.9824639,10.1307879 25.1069598,10.1307879 C25.2489872,10.1307879 25.2667406,10.2703547 25.2667406,10.3748118 C25.2667406,10.5667162 25.3197789,10.8805236 25.4085461,11.1419934 C25.7458612,12.2406464 26.9169214,12.6070094 27.892916,12.6070094 C29.2412885,12.6070094 30.0577242,11.7698262 30.0577242,10.723729 C30.0577242,10.0784503 29.8977214,9.43338967 28.513842,8.63131634 L27.6088612,8.10815866 C25.7633927,7.04439746 25.1602201,6.05041969 25.1602201,4.74285261 C25.1602201,2.92935565 26.9346749,1.76113736 29.0994831,1.76113736 C30.1107625,1.76113736 30.9094448,1.90070423 31.3175516,2.00516131 C31.459357,2.04005302 31.5303708,2.0923906 31.5303708,2.19706575 C31.5303708,2.38897019 31.4771105,2.80745271 31.4771105,3.975671 C31.4771105,4.28947837 31.4060968,4.44627302 31.2820448,4.44627302 C31.1755242,4.44627302 31.122264,4.3592618 31.122264,4.18480322 C31.122264,4.04523635 31.0512502,3.59186211 30.714157,3.20827131 C30.4833625,2.92935565 29.9867105,2.51087312 28.9752092,2.51087312 C27.8574092,2.51087312 26.8456858,3.08636837 26.8456858,4.09757393 C26.8456858,4.76029847 27.0942337,5.28323807 28.4958666,6.05063775 L29.134768,6.39911878 C31.1930557,7.51521755 31.831957,8.64854413 31.831957,9.99143906 C31.831957,11.0896558 31.4058749,11.9791765 30.2703214,12.763804 C29.5251214,13.2869617 28.4958666,13.3737557 27.6621214,13.3737557 C26.7571406,13.3739729 25.7988996,13.2869617 25.1247132,12.9903821" id="Fill-6" fill="#FFFFFF" fill-rule="nonzero"></path>
                            <path d="M34.4579327,6.25992263 C34.4579327,4.01071537 34.4579327,3.59201477 34.4401793,3.12119466 C34.4046724,2.61570092 34.2451136,2.44124234 33.9077985,2.33656719 C33.7304861,2.28422961 33.5351985,2.26678376 33.3401327,2.26678376 C33.1805738,2.26678376 33.0915848,2.23189205 33.0915848,2.09254325 C33.0915848,2.00531396 33.2156368,1.97042224 33.4641848,1.97042224 C34.0498258,1.97042224 35.1143656,2.00531396 35.5579793,2.00531396 C35.9485546,2.00531396 36.9598341,1.97042224 37.5632286,1.97042224 C37.7585162,1.97042224 37.8827902,2.00531396 37.8827902,2.09254325 C37.8827902,2.23189205 37.7940232,2.26678376 37.6342422,2.26678376 C37.4744614,2.26678376 37.3504094,2.28422961 37.1728752,2.31912134 C36.7470149,2.38890476 36.6227409,2.59825507 36.5872341,3.12119466 C36.5519492,3.59201477 36.5519492,4.01071537 36.5519492,6.25992263 L36.5519492,8.87549293 C36.5519492,10.3053991 36.5519492,11.4910633 36.6227409,12.1188961 C36.6760012,12.5199327 36.7825217,12.7465108 37.2438889,12.8162943 C37.4567081,12.8514041 37.8115546,12.8686318 38.0423492,12.8686318 C38.2196614,12.8686318 38.2906752,12.9558611 38.2906752,13.0256446 C38.2906752,13.1303197 38.1664012,13.1826573 37.9888669,13.1826573 C36.9598341,13.1826573 35.8952944,13.1303197 35.4692121,13.1303197 C35.1143656,13.1303197 34.0498258,13.1826573 33.4286779,13.1826573 C33.2333902,13.1826573 33.1270916,13.1303197 33.1270916,13.0256446 C33.1270916,12.9558611 33.1803518,12.8686318 33.3754176,12.8686318 C33.6062121,12.8686318 33.7835245,12.8514041 33.9255518,12.8162943 C34.2448916,12.7467288 34.3336588,12.5373786 34.386919,12.1016682 C34.4577108,11.4912813 34.4577108,10.3053991 34.4577108,8.875711 L34.4577108,6.25992263" id="Fill-8" fill="#FFFFFF" fill-rule="nonzero"></path>
                            <path d="M41.9103988,11.1596573 C41.9456837,12.3104298 42.1409713,12.6591288 42.4425577,12.763804 C42.7090809,12.8510333 43.0104453,12.868261 43.2587713,12.868261 C43.4363056,12.868261 43.5250728,12.9382626 43.5250728,13.0254919 C43.5250728,13.1473948 43.3830453,13.1822865 43.1702261,13.1822865 C42.1589466,13.1822865 41.4310562,13.129949 41.1474453,13.129949 C41.005418,13.129949 40.260218,13.1822865 39.4615357,13.1822865 C39.2487165,13.1822865 39.1066892,13.1650588 39.1066892,13.0254919 C39.1066892,12.9382626 39.2132097,12.868261 39.355237,12.868261 C39.5680562,12.868261 39.8518892,12.8510333 40.0651521,12.7986957 C40.473037,12.6942386 40.5262974,12.2929839 40.5440508,11.0026446 L40.6860782,2.2145116 C40.6860782,1.91815009 40.7923768,1.70879978 40.9523796,1.70879978 C41.1474453,1.70879978 41.3602645,1.93559594 41.6265658,2.19706575 C41.8218536,2.38897019 44.1639741,4.74285261 46.4350809,6.92249452 C47.4998426,7.95136402 49.5758837,10.0437766 49.8066782,10.2529089 L49.87747,10.2529089 L49.7176892,3.66164555 C49.7001577,2.75489707 49.5581302,2.49342726 49.1855302,2.35386039 C48.9549577,2.26684918 48.5819138,2.26684918 48.3690946,2.26684918 C48.1742508,2.26684918 48.1207686,2.19706575 48.1207686,2.10983646 C48.1207686,1.98771544 48.2805494,1.97026959 48.5111221,1.97026959 C49.3275577,1.97026959 50.1615248,2.00516131 50.498618,2.00516131 C50.6761522,2.00516131 51.2615714,1.97026959 52.0245248,1.97026959 C52.2375659,1.97026959 52.3793714,1.98771544 52.3793714,2.10983646 C52.3793714,2.19684768 52.2906042,2.26684918 52.1132919,2.26684918 C51.9535111,2.26684918 51.8292371,2.26684918 51.6339494,2.31918675 C51.2080892,2.44130776 51.0840371,2.70277757 51.0662837,3.53974261 L50.8887494,12.885925 C50.8887494,13.2171783 50.7644754,13.3567451 50.6404234,13.3567451 C50.374344,13.3567451 50.1615248,13.1997324 50.0015221,13.0427197 C49.0255275,12.1534171 47.0737604,10.3226923 45.441333,8.77066513 C43.7378918,7.16630039 42.087711,5.37046736 41.7856809,5.10877949 L41.7326426,5.10877949 L41.9103988,11.1596573" id="Fill-10" fill="#FFFFFF" fill-rule="nonzero"></path>
                            <path d="M55.11169,6.25992263 C55.11169,4.01071537 55.11169,3.59201477 55.0937146,3.12119466 C55.0582078,2.61570092 54.9164023,2.4586882 54.4193065,2.31912134 C54.2952544,2.28422961 54.0291749,2.26678376 53.7983805,2.26678376 C53.6385996,2.26678376 53.532301,2.21444618 53.532301,2.10977103 C53.532301,2.00509589 53.656353,1.97042224 53.8871475,1.97042224 C54.7033613,1.97042224 55.6971092,2.00509589 56.1407229,2.00509589 C56.6373749,2.00509589 60.0975174,2.02254174 60.3991037,2.00509589 C60.6831585,1.98765003 60.9317065,1.93553052 61.0557585,1.91808466 C61.1445257,1.90063881 61.2330709,1.84830123 61.3040846,1.84830123 C61.3928517,1.84830123 61.4106051,1.91808466 61.4106051,1.9878681 C61.4106051,2.09254325 61.321838,2.26678376 61.2863311,2.94695416 C61.2685777,3.10374881 61.2330709,3.74902748 61.1977859,3.923268 C61.1800325,3.99305143 61.1445257,4.16751001 61.0202517,4.16751001 C60.913953,4.16751001 60.8957558,4.09772658 60.8957558,3.97560557 C60.8957558,3.87093043 60.8782242,3.60946062 60.789679,3.43500204 C60.6651832,3.17353224 60.5411311,2.96440002 59.7602023,2.89439851 C59.4943449,2.85950679 57.6313448,2.82483315 57.3117832,2.82483315 C57.2409914,2.82483315 57.2052626,2.87717072 57.2052626,2.96440002 L57.2052626,6.62606758 C57.2052626,6.71329688 57.223238,6.78308031 57.3117832,6.78308031 C57.6666297,6.78308031 59.6896325,6.78308031 60.044479,6.7481886 C60.417079,6.71329688 60.6476517,6.67840516 60.789679,6.52161051 C60.913953,6.41671729 60.9672133,6.32970607 61.0380051,6.32970607 C61.1087969,6.32970607 61.162501,6.3994895 61.162501,6.48671879 C61.162501,6.57373001 61.1265503,6.81797202 61.0380051,7.56792586 C61.0024982,7.86428737 60.9672133,8.4570104 60.9672133,8.56168556 C60.9672133,8.68358849 60.949238,8.89293879 60.8074325,8.89293879 C60.7011338,8.89293879 60.6651832,8.84038314 60.6651832,8.77081779 C60.6476517,8.61380506 60.6476517,8.42211869 60.6121449,8.23021425 C60.5235997,7.93385274 60.3280901,7.70705658 59.7426709,7.65493708 C59.458838,7.61982729 57.6843832,7.58515364 57.2940297,7.58515364 C57.223238,7.58515364 57.2052626,7.65493708 57.2052626,7.74216637 L57.2052626,8.92783051 C57.2052626,9.43354232 57.1875092,10.6889899 57.2052626,11.1249183 C57.2409914,12.1361239 57.7196681,12.3627019 59.3168106,12.3627019 C59.7251393,12.3627019 60.3815722,12.3454741 60.789679,12.1707975 C61.1800325,11.9965569 61.3575667,11.6827496 61.4638654,11.0725807 C61.4995941,10.915568 61.534879,10.8460026 61.6416215,10.8460026 C61.7656736,10.8460026 61.783427,11.037689 61.783427,11.1944836 C61.783427,11.5257369 61.659153,12.5373786 61.5703859,12.8337401 C61.4638654,13.2171128 61.3220599,13.2171128 60.7366407,13.2171128 C59.5653585,13.2171128 58.6248709,13.199885 57.8621393,13.1649933 C57.098964,13.1473294 56.5133229,13.1298835 56.0519558,13.1298835 C55.8746434,13.1298835 55.5373284,13.1473294 55.1649502,13.1473294 C54.7923502,13.1649933 54.4019969,13.1822211 54.0824352,13.1822211 C53.8871475,13.1822211 53.7808489,13.1298835 53.7808489,13.0254265 C53.7808489,12.9556431 53.8341092,12.8684138 54.0291749,12.8684138 C54.2597475,12.8684138 54.4372818,12.8509679 54.5793092,12.8158581 C54.8986489,12.7462928 54.9871941,12.4673771 55.0406763,12.0312307 C55.11169,11.4036159 55.11169,10.2353976 55.11169,8.87527486 L55.11169,6.25992263" id="Fill-12" fill="#FFFFFF" fill-rule="nonzero"></path>
                            <path d="M63.7346171,12.9903821 C63.4862911,12.885925 63.4330309,12.8159235 63.4330309,12.4846703 C63.4330309,11.682597 63.5038226,10.7586207 63.5215761,10.5143786 C63.5215761,10.2878006 63.5923678,10.1307879 63.7168637,10.1307879 C63.8588911,10.1307879 63.8766446,10.2703547 63.8766446,10.3748118 C63.8766446,10.5667162 63.9301267,10.8805236 64.0186719,11.1419934 C64.3555432,12.2406464 65.5268254,12.6070094 66.5028199,12.6070094 C67.8514145,12.6070094 68.6676281,11.7698262 68.6676281,10.723729 C68.6676281,10.0784503 68.5078473,9.43338967 67.1237459,8.63131634 L66.2187651,8.10815866 C64.3735185,7.04439746 63.7701241,6.05041969 63.7701241,4.74285261 C63.7701241,2.92935565 65.5445789,1.76113736 67.709387,1.76113736 C68.7208885,1.76113736 69.5191267,1.90070423 69.9272337,2.00516131 C70.0694829,2.04005302 70.1402747,2.0923906 70.1402747,2.19706575 C70.1402747,2.38897019 70.0870145,2.80745271 70.0870145,3.975671 C70.0870145,4.28947837 70.0160007,4.44627302 69.8917267,4.44627302 C69.7856501,4.44627302 69.7321678,4.3592618 69.7321678,4.18480322 C69.7321678,4.04523635 69.6613761,3.59186211 69.324061,3.20827131 C69.0932665,2.92935565 68.5966145,2.51087312 67.585113,2.51087312 C66.4670911,2.51087312 65.4558117,3.08636837 65.4558117,4.09757393 C65.4558117,4.76029847 65.7041377,5.28323807 67.1057706,6.05063775 L67.7446719,6.39911878 C69.8031815,7.51521755 70.441861,8.64854413 70.441861,9.99143906 C70.441861,11.0896558 70.0160007,11.9791765 68.8802254,12.763804 C68.1350254,13.2869617 67.1057706,13.3737557 66.2720254,13.3737557 C65.3670446,13.3739729 64.4088034,13.2869617 63.7346171,12.9903821" id="Fill-14" fill="#FFFFFF" fill-rule="nonzero"></path>
                            <path d="M72.5710293,12.9903821 C72.3227033,12.885925 72.2694429,12.8159235 72.2694429,12.4846703 C72.2694429,11.682597 72.3402347,10.7586207 72.3579882,10.5143786 C72.3579882,10.2878006 72.4287799,10.1307879 72.5532758,10.1307879 C72.6953033,10.1307879 72.7128347,10.2703547 72.7128347,10.3748118 C72.7128347,10.5667162 72.7663169,10.8805236 72.8548621,11.1419934 C73.1919553,12.2406464 74.3630155,12.6070094 75.3390101,12.6070094 C76.6876046,12.6070094 77.5040402,11.7698262 77.5040402,10.723729 C77.5040402,10.0784503 77.3442594,9.43338967 75.9601581,8.63131634 L75.0551771,8.10815866 C73.2097087,7.04439746 72.6065361,6.05041969 72.6065361,4.74285261 C72.6065361,2.92935565 74.380769,1.76113736 76.5455771,1.76113736 C77.5573005,1.76113736 78.3555389,1.90070423 78.7638676,2.00516131 C78.9056731,2.04005302 78.9764649,2.0923906 78.9764649,2.19706575 C78.9764649,2.38897019 78.9232046,2.80745271 78.9232046,3.975671 C78.9232046,4.28947837 78.8524129,4.44627302 78.7281389,4.44627302 C78.6216183,4.44627302 78.5683581,4.3592618 78.5683581,4.18480322 C78.5683581,4.04523635 78.4973443,3.59186211 78.1602511,3.20827131 C77.9294566,2.92935565 77.4328046,2.51087312 76.4215251,2.51087312 C75.3035033,2.51087312 74.2920018,3.08636837 74.2920018,4.09757393 C74.2920018,4.76029847 74.5403279,5.28323807 75.9421827,6.05063775 L76.5808621,6.39911878 C78.6391498,7.51521755 79.2780511,8.64854413 79.2780511,9.99143906 C79.2780511,11.0896558 78.8521909,11.9791765 77.7166375,12.763804 C76.9712155,13.2869617 75.9421827,13.3737557 75.1082155,13.3737557 C74.2032347,13.3739729 73.2452155,13.2869617 72.5710293,12.9903821" id="Fill-16" fill="#FFFFFF" fill-rule="nonzero"></path>
                            <path d="M2.51943288,23.682796 C2.51943288,21.0323339 2.51943288,20.54385 2.48392604,19.9862367 C2.44841918,19.3930775 2.27088493,19.0969341 1.88053152,19.0094867 C1.68546576,18.9571492 1.45467124,18.9397032 1.24185205,18.9397032 C1.06431781,18.9397032 0.957797263,18.9050296 0.957797263,18.7656808 C0.957797263,18.6610057 1.09982466,18.626114 1.38365753,18.626114 C2.05806576,18.626114 3.17586576,18.6784515 3.69049316,18.6784515 C4.13410686,18.6784515 5.18089317,18.626114 5.85507946,18.626114 C6.08587399,18.626114 6.22790138,18.6610057 6.22790138,18.7656808 C6.22790138,18.9050296 6.12138084,18.9397032 5.94406851,18.9397032 C5.76631234,18.9397032 5.62450686,18.9573671 5.41146577,18.9924769 C4.93256714,19.0794882 4.79053974,19.3758497 4.75503289,19.9862367 C4.71952604,20.544068 4.71952604,21.0323339 4.71952604,23.682796 L4.71952604,26.7515224 C4.71952604,28.4428984 4.71952604,29.820685 4.79031782,30.5702027 C4.84380001,31.0410229 4.96785206,31.3548302 5.50023289,31.4246136 C5.74878084,31.4592872 6.13913426,31.494179 6.40521371,31.494179 C6.60050138,31.494179 6.68904659,31.5467346 6.68904659,31.6337458 C6.68904659,31.7558669 6.54724111,31.8082045 6.35217536,31.8082045 C5.18089317,31.8082045 4.06309316,31.7558669 3.58375069,31.7558669 C3.17586576,31.7558669 2.05784384,31.8082045 1.34815069,31.8082045 C1.11757808,31.8082045 0.993304112,31.7558669 0.993304112,31.6337458 C0.993304112,31.5467346 1.06409589,31.494179 1.27713699,31.494179 C1.54343836,31.494179 1.75625754,31.4592872 1.91603836,31.4246136 C2.27066302,31.3548302 2.37718357,31.0582506 2.43066576,30.5527569 C2.51943288,29.820685 2.51943288,28.4426803 2.51943288,26.7515224 L2.51943288,23.682796" id="Fill-18" fill="#FFFFFF" fill-rule="nonzero"></path>
                            <path d="M11.5509995,29.7856407 C11.5865064,30.936195 11.7815721,31.2851122 12.0833803,31.3897873 C12.3494597,31.4770166 12.651268,31.4942444 12.899594,31.4942444 C13.0769064,31.4942444 13.1656735,31.5640278 13.1656735,31.6514752 C13.1656735,31.7733781 13.023868,31.8080517 12.8108269,31.8080517 C11.7995474,31.8080517 11.0718789,31.7559322 10.7880461,31.7559322 C10.6460187,31.7559322 9.90081866,31.8080517 9.10235838,31.8080517 C8.88931729,31.8080517 8.74751181,31.7906059 8.74751181,31.6514752 C8.74751181,31.5640278 8.85403235,31.4942444 8.99583783,31.4942444 C9.20887893,31.4942444 9.49271181,31.4770166 9.7057529,31.4246791 C10.1136378,31.3200039 10.16712,30.9191853 10.1846515,29.628628 L10.3266789,20.840495 C10.3266789,20.5441334 10.4329776,20.3350012 10.5927584,20.3350012 C10.7880461,20.3350012 11.0008652,20.5615792 11.2671666,20.8230491 C11.4624543,21.0147354 13.8045748,23.3688359 16.0759036,25.5482598 C17.1404433,26.5771292 19.2164844,28.6695419 19.4472789,28.8788921 L19.5180708,28.8788921 L19.3585118,22.2876289 C19.3407584,21.3808803 19.198731,21.1194106 18.826131,20.9798437 C18.5955584,20.8928325 18.2227365,20.8928325 18.0096954,20.8928325 C17.8146296,20.8928325 17.7613693,20.8230491 17.7613693,20.7358198 C17.7613693,20.6136987 17.9213721,20.5962529 18.1517228,20.5962529 C18.9681584,20.5962529 19.8021256,20.6311447 20.1392187,20.6311447 C20.3167529,20.6311447 20.9021721,20.5962529 21.6653474,20.5962529 C21.8781666,20.5962529 22.020194,20.6136987 22.020194,20.7358198 C22.020194,20.822831 21.931205,20.8928325 21.7538927,20.8928325 C21.5941118,20.8928325 21.4700597,20.8928325 21.2747721,20.9451701 C20.8489118,21.0672911 20.7246379,21.3287608 20.7068844,22.165726 L20.5293502,31.5119083 C20.5293502,31.8431615 20.4052981,31.9825104 20.2810241,31.9825104 C20.0149447,31.9825104 19.8021256,31.8257157 19.6421228,31.668703 C18.6663501,30.7794004 16.7143612,28.9484576 15.0819337,27.3966485 C13.3787145,25.7925017 11.7283118,23.9964507 11.4267255,23.7349809 L11.3734652,23.7349809 L11.5509995,29.7856407" id="Fill-20" fill="#FFFFFF" fill-rule="nonzero"></path>
                            <g id="Fill-22-Clipped" transform="translate(25.089140, 20.387012)">
                                <mask id="mask-12" fill="white">
                                    <use xlink:href="#path-11"></use>
                                </mask>
                                <g id="path-3"></g>
                                <path d="M0.301586303,11.2294628 C0.0532602741,11.1250057 5.32907052e-15,11.0547862 5.32907052e-15,10.7237509 C5.32907052e-15,9.92167765 0.070791781,8.99770139 0.0885452057,8.75345937 C0.0885452057,8.52666321 0.159558904,8.36986856 0.283832877,8.36986856 C0.425860275,8.36986856 0.4436137,8.50921735 0.4436137,8.6138925 C0.4436137,8.80579695 0.496873973,9.11960432 0.58541918,9.38107412 C0.922512332,10.479727 2.09379453,10.845654 3.06978905,10.845654 C4.41816166,10.845654 5.23459727,10.0086889 5.23459727,8.96237353 C5.23459727,8.31753099 5.07481645,7.67225231 3.69071508,6.87039705 L2.78573425,6.34723938 C0.940265756,5.28326009 0.337093152,4.28971847 0.337093152,2.98171524 C0.337093152,1.16821828 2.11132604,1.66977543e-13 4.27635618,1.66977543e-13 C5.28763563,1.66977543e-13 6.0860959,0.139566866 6.49420275,0.244242015 C6.63623015,0.279133731 6.70724386,0.331253233 6.70724386,0.436146456 C6.70724386,0.627832823 6.65398358,1.04631535 6.65398358,2.21453363 C6.65398358,2.52855908 6.58319179,2.68513566 6.45869591,2.68513566 C6.35239727,2.68513566 6.29891509,2.59812444 6.29891509,2.42366585 C6.29891509,2.28431706 6.2281233,1.83094282 5.89080823,1.44735202 C5.66023563,1.16821828 5.16336166,0.749735758 4.15208221,0.749735758 C3.03406028,0.749735758 2.02255891,1.325231 2.02255891,2.33665463 C2.02255891,2.99937918 2.27110685,3.52231877 3.67273973,4.28971847 L4.3116411,4.63819949 C6.36992878,5.75429827 7.00860823,6.88762483 7.00860823,8.23030169 C7.00860823,9.32873654 6.58274797,10.2180392 5.44719454,11.0026667 C4.70199453,11.5256063 3.67273973,11.6130537 2.83877261,11.6130537 C1.93423562,11.6130537 0.975994523,11.5258243 0.301586303,11.2294628" id="Fill-22" fill="#FFFFFF" fill-rule="nonzero" mask="url(#mask-12)"></path>
                            </g>
                            <path d="M36.2145453,24.8856007 C36.2145453,22.6363934 36.2145453,22.2181289 36.1967918,21.7470908 C36.1615069,21.241597 36.0017261,21.0671384 35.664411,20.9624633 C35.4870988,20.9103438 35.291811,20.8926799 35.0967453,20.8926799 C34.9369645,20.8926799 34.8481973,20.8577882 34.8481973,20.7184393 C34.8481973,20.63121 34.9724713,20.5963183 35.2207973,20.5963183 C35.8066604,20.5963183 36.8709782,20.63121 37.3145918,20.63121 C37.7051672,20.63121 38.7164466,20.5963183 39.3198412,20.5963183 C39.5151289,20.5963183 39.6394029,20.63121 39.6394029,20.7184393 C39.6394029,20.8577882 39.5506357,20.8926799 39.3908549,20.8926799 C39.231296,20.8926799 39.107022,20.9103438 38.9294878,20.9452355 C38.5036274,21.0148009 38.3793536,21.2241512 38.3438466,21.7470908 C38.3085617,22.2181289 38.3085617,22.6366115 38.3085617,24.8858187 L38.3085617,27.501389 C38.3085617,28.9315132 38.3085617,30.1169593 38.3793536,30.7447922 C38.4326138,31.1458288 38.5391344,31.3724069 39.0005014,31.4419723 C39.2133206,31.4773001 39.5681672,31.4945279 39.7989617,31.4945279 C39.9762741,31.4945279 40.0472878,31.5817572 40.0472878,31.6515406 C40.0472878,31.7562158 39.9230138,31.8083353 39.7457014,31.8083353 C38.7164466,31.8083353 37.6519069,31.7562158 37.2258248,31.7562158 C36.8709782,31.7562158 35.8064385,31.8083353 35.1852905,31.8083353 C34.9900028,31.8083353 34.8834822,31.7562158 34.8834822,31.6515406 C34.8834822,31.5817572 34.9369645,31.4945279 35.1322521,31.4945279 C35.3628248,31.4945279 35.540137,31.4773001 35.6821645,31.4419723 C36.0017261,31.3724069 36.0902713,31.1632746 36.1435316,30.7273463 C36.2143234,30.1171774 36.2143234,28.9315132 36.2143234,27.5016071 L36.2143234,24.8856007" id="Fill-25" fill="#FFFFFF" fill-rule="nonzero"></path>
                            <path d="M44.1815722,24.8856007 C44.1815722,22.6363934 44.1815722,22.2181289 44.1635969,21.7470908 C44.12809,21.241597 43.9862845,21.0843662 43.4894105,20.9450175 C43.3651365,20.9103438 43.0988352,20.8926799 42.8684845,20.8926799 C42.7087037,20.8926799 42.602405,20.8403423 42.602405,20.7356671 C42.602405,20.6309919 42.726457,20.5961002 42.9570297,20.5961002 C43.7734653,20.5961002 44.7669913,20.6309919 45.210827,20.6309919 C45.6897256,20.6309919 46.8077475,20.5961002 47.7482352,20.5961002 C49.7000023,20.5961002 52.3259558,20.5961002 54.0296188,22.2874763 C54.8105475,23.054876 55.5024873,24.2926595 55.5024873,26.0540371 C55.5024873,27.9198715 54.6860517,29.3323319 53.7988242,30.1867428 C53.0891311,30.8839229 51.4387284,31.9302382 48.564227,31.9302382 C47.9963393,31.9302382 47.322153,31.8776825 46.701227,31.8427908 C46.0803009,31.7904532 45.5121913,31.7557796 45.121838,31.7557796 C44.9445256,31.7557796 44.6072105,31.7734435 44.2348325,31.7734435 C43.8624544,31.7906713 43.471879,31.8081172 43.1520954,31.8081172 C42.9570297,31.8081172 42.850731,31.7557796 42.850731,31.6513226 C42.850731,31.5815391 42.9037694,31.4943098 43.0988352,31.4943098 C43.3296297,31.4943098 43.507164,31.476864 43.6491913,31.4417542 C43.968531,31.3721889 44.0572982,31.0932731 44.1105585,30.6573448 C44.1815722,30.02973 44.1815722,28.8612936 44.1815722,27.501171 L44.1815722,24.8856007 L44.1815722,24.8856007 Z M46.2753667,26.5248571 C46.2753667,28.094112 46.2931201,29.2274386 46.3108736,29.5240182 C46.328627,29.8901632 46.3643557,30.4133208 46.4884078,30.5701155 C46.6834736,30.8492492 47.3043996,31.1630566 48.5289421,31.1630566 C49.9483284,31.1630566 50.9953366,30.9190327 51.9356023,30.151633 C52.9471037,29.3323319 53.2666653,28.0068827 53.2666653,26.4725195 C53.2666653,24.5896752 52.5037119,23.3689014 51.8115502,22.7759602 C50.3741886,21.5205126 48.6707475,21.363718 47.4466489,21.363718 C47.1268653,21.363718 46.6124598,21.3986097 46.4884078,21.4681751 C46.3463804,21.5205126 46.2931201,21.5905141 46.2931201,21.7645366 C46.2753667,22.2704665 46.2753667,23.4910224 46.2753667,24.6592407 L46.2753667,26.5248571 Z" id="Fill-27" fill="#FFFFFF" fill-rule="nonzero"></path>
                            <path d="M59.4941229,24.8856007 C59.4941229,22.6363934 59.4941229,22.2181289 59.4763694,21.7470908 C59.4410845,21.241597 59.2990571,21.0843662 58.8021832,20.9450175 C58.6779092,20.9103438 58.4118297,20.8926799 58.1810353,20.8926799 C58.0214763,20.8926799 57.9149558,20.8403423 57.9149558,20.7356671 C57.9149558,20.6309919 58.0392297,20.5961002 58.2698023,20.5961002 C59.086238,20.5961002 60.079764,20.6309919 60.5235997,20.6309919 C61.0202517,20.6309919 64.4803942,20.6484378 64.7819805,20.6309919 C65.0660353,20.6135461 65.3143613,20.5614266 65.4384133,20.5439807 C65.5274023,20.5265349 65.6159475,20.4741973 65.6869613,20.4741973 C65.7757284,20.4741973 65.7934818,20.5439807 65.7934818,20.6137642 C65.7934818,20.7184393 65.7047147,20.8926799 65.6692078,21.5730683 C65.6514545,21.7296449 65.6159475,22.3749236 65.5806626,22.5491641 C65.5629093,22.6187294 65.5274023,22.7934061 65.4031284,22.7934061 C65.2966078,22.7934061 65.2786325,22.7236227 65.2786325,22.6015017 C65.2786325,22.4970446 65.2608791,22.2355747 65.1723338,22.0608981 C65.0480599,21.7994283 64.9240078,21.5902962 64.143301,21.5202946 C63.8769997,21.4854028 62.0137777,21.4507292 61.694438,21.4507292 C61.6236462,21.4507292 61.5881393,21.5028488 61.5881393,21.5902962 L61.5881393,25.2521817 C61.5881393,25.339193 61.6058928,25.4087584 61.694438,25.4087584 C62.0495065,25.4087584 64.0722873,25.4087584 64.4271338,25.3740847 C64.7997338,25.339193 65.0303065,25.3043013 65.1723338,25.1475066 C65.2966078,25.0428314 65.3498681,24.9556022 65.4211037,24.9556022 C65.4918955,24.9556022 65.5451558,25.0253856 65.5451558,25.1123968 C65.5451558,25.1996261 65.509427,25.4438681 65.4211037,26.1936039 C65.385153,26.4899654 65.3498681,27.0829065 65.3498681,27.1875816 C65.3498681,27.3094846 65.3323366,27.5188348 65.1903093,27.5188348 C65.0835667,27.5188348 65.0480599,27.4664973 65.0480599,27.3967138 C65.0303065,27.2399192 65.0303065,27.0482329 64.9950215,26.8563285 C64.9064763,26.5597488 64.7109667,26.3331708 64.1255475,26.2806151 C63.8417147,26.2457234 62.0672599,26.2110498 61.6771284,26.2110498 C61.6058928,26.2110498 61.5881393,26.2806151 61.5881393,26.3680625 L61.5881393,27.5537265 C61.5881393,28.0594384 61.5703859,29.314886 61.5881393,29.7508143 C61.6238681,30.7620199 62.1025449,30.988598 63.6999093,30.988598 C64.1077942,30.988598 64.7644489,30.9711521 65.1725558,30.7966936 C65.5629093,30.6226712 65.7404434,30.3086457 65.8467421,29.6982587 C65.882249,29.5414641 65.9175338,29.4718987 66.0244982,29.4718987 C66.1483284,29.4718987 66.1663037,29.663585 66.1663037,29.8205979 C66.1663037,30.1514149 66.0420298,31.1630566 65.9530407,31.4594181 C65.8469641,31.8427908 65.7049366,31.8427908 65.1195174,31.8427908 C63.9482353,31.8427908 63.0077475,31.825563 62.2450161,31.7904532 C61.4818407,31.7732255 60.8959777,31.7557796 60.4348325,31.7557796 C60.2572982,31.7557796 59.9202051,31.7732255 59.547827,31.7732255 C59.175227,31.7904532 58.7848736,31.8078991 58.4650901,31.8078991 C58.2700242,31.8078991 58.1637257,31.7557796 58.1637257,31.6511045 C58.1637257,31.581321 58.2169859,31.4943098 58.4120517,31.4943098 C58.6426242,31.4943098 58.8203805,31.476864 58.9621859,31.4415361 C59.2815257,31.3719708 59.3700709,31.0932731 59.423553,30.6571267 C59.4943449,30.02973 59.4943449,28.8612936 59.4943449,27.501171 L59.4941229,24.8856007" id="Fill-29" fill="#FFFFFF" fill-rule="nonzero"></path>
                            <g id="Fill-31-Clipped" transform="translate(68.525845, 20.596100)">
                                <mask id="mask-14" fill="white">
                                    <use xlink:href="#path-13"></use>
                                </mask>
                                <g id="path-5"></g>
                                <path d="M1.57916712,4.28950039 C1.57916712,2.04029312 1.57916712,1.62202867 1.56141371,1.1509905 C1.52590685,0.645496755 1.38387945,0.488265957 0.887005481,0.348917165 C0.762731508,0.314243522 0.496652055,0.29657959 0.266079453,0.29657959 C0.10629863,0.29657959 -1.77635684e-15,0.244242015 -1.77635684e-15,0.139566866 C-1.77635684e-15,0.0348917161 0.124052054,7.81597009e-14 0.354624658,7.81597009e-14 C1.17083836,7.81597009e-14 2.16480823,0.0348917161 2.48392604,0.0348917161 C3.01652877,0.0348917161 4.43591508,7.81597009e-14 4.91481372,7.81597009e-14 C5.90878357,7.81597009e-14 7.04433701,0.0872292914 7.87830413,0.627832824 C8.32191783,0.924194342 8.97857262,1.67414817 8.97857262,2.66790787 C8.97857262,3.7665608 8.33967125,4.74287463 6.8137644,5.94620271 C8.19764386,7.61991473 9.29791235,8.96280967 10.2384,9.88678594 C11.107874,10.7409788 11.6577863,10.8107622 11.9063343,10.8633178 C12.0661151,10.8982096 12.1546603,10.8982096 12.2789343,10.8982096 C12.4029863,10.8982096 12.4742219,10.9852208 12.4742219,11.0550042 C12.4742219,11.1771253 12.3677014,11.2117989 12.1724138,11.2117989 L10.6820138,11.2117989 C9.81253975,11.2117989 9.38667947,11.1247876 8.97857262,10.9156554 C8.30416441,10.5841841 7.71874522,9.88678594 6.84927125,8.73601351 C6.22790138,7.93394019 5.57169042,6.93974433 5.37618084,6.71316625 C5.28763563,6.62615503 5.1988685,6.60870918 5.09234796,6.60870918 L3.69071508,6.57403553 C3.61970137,6.57403553 3.56644111,6.60870918 3.56644111,6.69593847 L3.56644111,6.90507069 C3.56644111,8.28263927 3.58397261,9.4334117 3.65498631,10.0612445 C3.7084685,10.4971729 3.77926028,10.7760886 4.25838084,10.8456539 C4.48895344,10.8807637 4.8262685,10.8982096 5.02133426,10.8982096 C5.14538632,10.8982096 5.21662193,10.9852208 5.21662193,11.0550042 C5.21662193,11.1596793 5.09234796,11.212017 4.8972822,11.212017 C3.99207946,11.212017 2.69674521,11.1596793 2.46617261,11.1596793 C2.16458631,11.1596793 1.17083836,11.212017 0.549690412,11.212017 C0.354624658,11.212017 0.24810411,11.1596793 0.24810411,11.0550042 C0.24810411,10.9854388 0.301364383,10.8982096 0.496652055,10.8982096 C0.727224659,10.8982096 0.904758906,10.8807637 1.04678631,10.8456539 C1.36612603,10.7760886 1.45467124,10.4971729 1.50793151,10.0612445 C1.57894521,9.43362977 1.57894521,8.26519341 1.57894521,6.90507069 L1.57894521,4.28950039 L1.57916712,4.28950039 Z M3.56644111,5.44049089 C3.56644111,5.59750362 3.60194796,5.64962312 3.7084685,5.70217876 C4.04556165,5.80685391 4.50670686,5.84152756 4.89750412,5.84152756 C5.51843016,5.84152756 5.73124933,5.78940805 5.99732878,5.59750362 C6.47667125,5.26625038 7.00905208,4.62118978 7.00905208,3.40041585 C7.00905208,1.30800322 5.55371508,0.767617762 4.63098084,0.767617762 C4.24084933,0.767617762 3.86802741,0.784845548 3.7084685,0.819955338 C3.60194796,0.854628981 3.56644111,0.906748482 3.56644111,1.02908757 L3.56644111,5.44049089 Z" id="Fill-31" fill="#FFFFFF" fill-rule="nonzero" mask="url(#mask-14)"></path>
                            </g>
                        </g>
                        <g id="Mashable-01" transform="translate(348.000000, 8.000000)" fill="#FFFFFF">
                            <polyline id="Fill-1" points="17.4041918 19.6453322 17.4041918 6.65450297 12.4084274 19.6453322 10.1463836 19.6453322 5.11796712 6.65450297 5.11796712 19.6453322 0 19.6453322 0 0 7.11168219 0 11.2775671 10.8397753 15.4108 0 22.5221589 0 22.5221589 19.6453322 17.4041918 19.6453322"></polyline>
                            <path d="M32.6924658,15.9920616 L32.6924658,14.727037 C32.216263,14.0503513 31.1465041,13.7241721 30.1336438,13.7241721 C28.9455616,13.7241721 27.8428274,14.2555337 27.8428274,15.3755542 C27.8428274,16.4952546 28.9455616,17.023095 30.1336438,17.023095 C31.1465041,17.023095 32.216263,16.6725885 32.6924658,15.9920616 M32.6924658,19.6453322 L32.6924658,18.2314624 C31.8014849,19.2909845 30.0722192,20 28.2294795,20 C26.028537,20 23.2906137,18.4974632 23.2906137,15.3153759 C23.2906137,11.8711288 26.028537,10.7190986 28.2294795,10.7190986 C30.1336438,10.7190986 31.8299342,11.3394472 32.6924658,12.3989693 L32.6924658,10.9847794 C32.6924658,9.74824347 31.6223836,8.89422384 29.7754411,8.89422384 C28.3474795,8.89422384 26.9195178,9.45407404 25.7598849,10.4252493 L24.0635945,7.27485155 C25.910537,5.71181639 28.3801315,5.06746051 30.581074,5.06746051 C34.0308767,5.06746051 37.2734521,6.33216498 37.2734521,10.7511083 L37.2734521,19.6453322 L32.6924658,19.6453322" id="Fill-3"></path>
                            <path d="M37.5990027,17.7900482 L39.5028438,14.5513036 C40.5726027,15.4943103 42.8630959,16.4648453 44.5597096,16.4648453 C45.9268932,16.4648453 46.4923233,16.0820089 46.4923233,15.4619804 C46.4923233,13.697284 38.1359836,15.5221587 38.1359836,9.74984395 C38.1359836,7.24444231 40.336926,5.06489973 44.2913808,5.06489973 C46.7322027,5.06489973 48.7543671,5.83057249 50.3003288,6.95027288 L48.5468164,10.1608489 C47.6842849,9.33499784 46.0487726,8.601975 44.3240329,8.601975 C43.2497479,8.601975 42.5378685,9.01265985 42.5378685,9.57251004 C42.5378685,11.131704 50.8657589,9.51233175 50.8657589,15.3451449 C50.8657589,18.0557289 48.4572658,19.9977593 44.3521589,19.9977593 C41.7648877,19.9977593 39.1165151,19.1437397 37.5990027,17.7900482" id="Fill-4"></path>
                            <path d="M61.1876877,19.6453322 L61.1876877,11.3676158 C61.1876877,9.63140795 60.2640548,9.07155775 58.8076438,9.07155775 C57.4692329,9.07155775 56.5782521,9.80874186 56.0409479,10.457259 L56.0409479,19.6453322 L51.4602849,19.6453322 L51.4602849,0 L56.0409479,0 L56.0409479,7.15833613 C56.9034795,6.15515117 58.6000932,5.06746051 61.0085863,5.06746051 C64.279611,5.06746051 65.768674,6.89233527 65.768674,9.51457243 L65.768674,19.6453322 L61.1876877,19.6453322" id="Fill-5"></path>
                            <path d="M75.822274,15.9920616 L75.822274,14.727037 C75.3463945,14.0503513 74.2763123,13.7241721 73.2631288,13.7241721 C72.0750466,13.7241721 70.9726356,14.2555337 70.9726356,15.3755542 C70.9726356,16.4952546 72.0750466,17.023095 73.2631288,17.023095 C74.2763123,17.023095 75.3463945,16.6725885 75.822274,15.9920616 M75.822274,19.6453322 L75.822274,18.2314624 C74.9312932,19.2909845 73.2023507,20 71.3589644,20 C69.1583452,20 66.4200986,18.4974632 66.4200986,15.3153759 C66.4200986,11.8711288 69.1583452,10.7190986 71.3589644,10.7190986 C73.2631288,10.7190986 74.9597425,11.3394472 75.822274,12.3989693 L75.822274,10.9847794 C75.822274,9.74824347 74.7525151,8.89422384 72.9052493,8.89422384 C71.4772877,8.89422384 70.049326,9.45407404 68.8896932,10.4252493 L67.1934027,7.27485155 C69.0403452,5.71181639 71.5096164,5.06746051 73.7108822,5.06746051 C77.1606849,5.06746051 80.4032603,6.33216498 80.4032603,10.7511083 L80.4032603,19.6453322 L75.822274,19.6453322" id="Fill-6"></path>
                            <path d="M89.2965808,15.9920616 C91.1108712,15.9920616 92.4780548,14.6668587 92.4780548,12.5199661 C92.4780548,10.3967606 91.1108712,9.07155775 89.2965808,9.07155775 C88.3163726,9.07155775 87.1240877,9.60323938 86.5586575,10.3685921 L86.5586575,14.727037 C87.1240877,15.4927098 88.3163726,15.9920616 89.2965808,15.9920616 M81.9776712,19.6453322 L81.9776712,0 L86.5586575,0 L86.5586575,7.09783774 C87.6895178,5.68396793 89.2354795,5.06746051 90.8140932,5.06746051 C94.4145479,5.06746051 97.1485918,7.86319041 97.1485918,12.5199661 C97.1485918,17.3492742 94.3534466,20 90.8140932,20 C89.2073534,20 87.7506192,19.3514829 86.5586575,17.9981114 L86.5586575,19.6453322 L81.9776712,19.6453322" id="Fill-7"></path>
                            <polygon id="Fill-8" points="97.802926 19.6459724 102.383912 19.6459724 102.383912 0.00032009731 97.802926 0.00032009731"></polygon>
                            <path d="M110.652318,8.71881052 C108.658926,8.71881052 107.886268,9.89516813 107.707167,10.9262016 L113.626564,10.9262016 C113.508564,9.92333669 112.764033,8.71881052 110.652318,8.71881052 M103.03663,12.5177254 C103.03663,8.39263136 106.161205,5.06521983 110.652318,5.06521983 C114.908077,5.06521983 118,8.15896032 118,12.9885885 L118,14.0199421 L107.768268,14.0199421 C108.093496,15.2846465 109.285458,16.3480098 111.364521,16.3480098 C112.377381,16.3480098 114.045868,15.9053152 114.875425,15.1399625 L116.86914,18.1127063 C115.441178,19.381572 113.061134,19.9980794 110.860192,19.9980794 C106.429534,19.9980794 103.03663,17.1418511 103.03663,12.5177254" id="Fill-9"></path>
                        </g>
                        <g id="The_New_York_Times" transform="translate(516.000000, 5.000000)">
                            <g id="Group-3" transform="translate(-0.000000, 0.000000)">
                                <mask id="mask-16" fill="white">
                                    <use xlink:href="#path-15"></use>
                                </mask>
                                <g id="Clip-2"></g>
                                <path d="M11.4800298,0.0171303075 C12.0007196,0.0628111274 12.8177627,0.317862372 13.433413,0.854929234 C14.0873024,1.48716447 14.2364351,2.44646169 14.0073189,3.31852123 C13.8033768,4.0954124 13.5752165,4.49924353 12.7788862,5.0363104 C11.9739521,5.57686676 11.0007658,5.53118594 11.0007658,5.53118594 L11.0007658,8.89729136 L12.6456865,10.2226696 L11.0004472,11.5439239 L11.0007658,16.1294534 C11.0007658,16.1294534 12.6488731,15.1888726 13.671133,13.0827965 C13.671133,13.0827965 13.7131961,12.9682772 13.8094313,12.7512933 C13.9002493,13.3153245 13.8483078,14.4576623 13.2071647,15.9235725 C12.7240768,17.0278429 11.8455323,18.0902391 10.7436075,18.6958272 C8.79086167,19.7737677 7.32662092,19.8765495 5.7565852,19.5526598 C3.91823812,19.1757931 2.24878061,18.1473402 1.10925398,16.3537335 C0.308462468,15.093387 -0.0500295531,13.6236701 -0.017207617,12.0429234 C0.0471616169,8.93916545 2.366366,6.26239629 5.04342508,5.26439727 C5.36941382,5.14289898 5.49910827,5.06295754 5.96148331,5.02076623 C5.74830005,5.16573939 5.5019762,5.3522694 5.19956827,5.55021962 C4.33759412,6.11393363 3.59894123,7.23723768 3.28378691,8.10168375 L8.47984992,5.79385066 L8.47984992,13.0260127 L4.28947652,15.1162274 C4.76714723,15.7751098 6.21768561,16.7731088 7.45854599,16.9136408 C9.56966566,17.1461689 10.8082954,16.2284285 10.8082954,16.2284285 L10.8079768,11.5439239 L9.17197852,10.2226696 L10.8089327,8.90141532 L10.8089327,5.53118594 C9.91668594,5.4284041 8.83260607,5.13528551 8.19879218,4.97889214 C7.26703158,4.75048804 4.15978208,3.88223524 3.67127695,3.80990727 C3.18340914,3.73757931 2.58114255,3.76041972 2.21691466,4.08430942 C1.8523681,4.41168863 1.62675712,4.98650561 1.78194434,5.5045388 C1.86957572,5.79765739 2.07224321,5.96896047 2.22551846,6.13645681 C2.22551846,6.13645681 2.04611312,6.12122987 1.72108036,5.92708638 C1.13442808,5.57686676 0.68830468,4.89133724 0.634451212,4.04592484 C0.565620744,2.93784773 1.02385321,1.94016593 1.94191144,1.27018058 C2.73951636,0.759760859 3.64164161,0.432064422 4.69066893,0.580844314 C6.2208722,0.797828209 8.27845707,1.65846755 10.1110683,2.09624207 C10.8210418,2.26786237 11.3707296,2.3249634 11.8697505,2.03533431 C12.102372,1.86783797 12.5112122,1.43735969 12.1769383,0.866349439 C11.786899,0.196046852 11.039005,0.211273792 10.4055097,0.0932650073 C10.9507363,-0.0209370425 11.0702336,-0.0209370425 11.4800298,0.0171303075 Z M5.30153933,14.3964373 L5.30153933,7.41234749 L3.19169429,8.34912152 C3.19105697,8.34912152 2.65379693,9.54856027 2.74780151,11.2888726 C2.82204919,12.6485115 3.58555753,14.274939 4.1722098,14.9563446 L5.30153933,14.3964373 L5.30153933,14.3964373 Z" id="Fill-1" fill="#FFFFFF" mask="url(#mask-16)"></path>
                            </g>
                            <path d="M31.6339732,7.07323084 C31.6339732,7.07323084 30.04195,8.03316252 28.9712538,8.66888726 C27.9008763,9.3011225 26.4646776,9.99807223 26.4646776,9.99807223 L26.4646776,16.6620791 L25.5071056,17.4281845 L25.6339321,17.5760127 L26.568242,16.8264031 L29.4964048,19.4616154 L34.5853982,15.4477306 L34.4649449,15.3027574 L31.6524555,17.499878 L29.3408989,15.3449488 L29.3412176,14.5414104 L33.9844062,11.14041 L31.6339732,7.07323084 Z M31.7015291,12.5761835 L29.3408989,14.2977794 L29.3408989,8.56991215 L31.7015291,12.5761835 L31.7015291,12.5761835 Z" id="Fill-4" fill="#FFFFFF"></path>
                            <path d="M18.2945648,21.9670815 C18.9627939,22.1307711 20.1415157,22.22245 21.5627374,21.5134456 C23.1362784,20.7292582 23.9275101,19.0650805 23.9169943,17.359346 L23.9835942,14.9411176 L23.9839128,9.65895559 L24.9899211,8.89380185 L24.8726544,8.74502196 L23.8825791,9.48765251 L21.5977899,6.95934602 L18.6667592,9.4648121 L18.6667592,0.950097609 L15.0044047,3.76803319 C15.1672397,3.87081503 15.6863362,3.96630063 15.7016318,4.69338702 L15.7016318,16.6208394 L14.1507157,17.7669839 L14.2568293,17.9268668 L15.0056793,17.370449 L17.0913062,19.3010981 L20.3744558,16.7007809 L20.2552772,16.552001 L19.4834837,17.1610786 L18.6667592,16.3537335 L18.6747257,9.70876037 L19.6313417,8.89729136 L21.057662,10.6607613 C21.057662,10.6607613 21.054794,14.963958 21.0586179,16.3921181 C21.0481022,17.9151293 21.0430036,19.8153245 20.2390255,20.7330649 C19.4353661,21.6549292 19.1132012,21.7272572 18.2945648,21.9670815" id="Fill-5" fill="#FFFFFF"></path>
                            <path d="M41.079999,21.3656174 C39.7683962,21.2168375 39.2174338,20.4250366 39.2324108,19.8004148 C39.2419705,19.4000732 39.6068358,18.6158858 40.4044407,18.5092972 C41.2014083,18.3989019 42.0162208,18.7719619 42.7042068,19.5755002 L45.7337034,16.2433382 L45.5877573,16.1139092 L44.7739008,17.0202294 C43.9472978,16.0834553 42.7743119,15.4930942 41.6057873,15.3221083 L41.6057873,5.16922889 L49.4747668,19.4384578 C49.4747668,19.4384578 49.5502891,19.6021474 49.8737286,19.6021474 C50.152237,19.6021474 50.0853185,19.3772328 50.0853185,19.3772328 L50.0840439,5.01695949 C50.723275,4.99031235 51.6996479,4.64009273 52.1734947,4.15663738 C53.688721,2.60666179 53.0698841,0.915836994 52.9035438,0.752147389 C52.8108139,1.49097121 52.2400946,2.23360176 51.2876211,2.23709126 C50.0378383,2.240898 49.2759232,1.32315764 49.2759232,1.32315764 L46.2486573,4.75810151 L46.39301,4.8875305 L47.2604014,3.90126891 C48.3196258,4.87230356 49.0930126,4.9636652 49.8928481,5.01695949 L49.8922108,13.3492679 L44.0553234,2.7931918 C43.5273045,1.92113226 42.7220518,1.1556613 41.4607972,1.14424109 C40.0108961,1.13662762 38.9730219,2.40839434 38.8490633,3.50505124 C38.7088531,4.74287457 38.8640403,5.0283797 38.8640403,5.0283797 C38.8640403,5.0283797 39.0775422,3.6500244 39.9344178,3.66144461 C40.7039807,3.67286481 41.1045358,4.37711079 41.4133169,4.90656418 L41.4133169,7.96432406 C40.6195359,8.01761835 38.5530286,8.10929722 38.4268394,10.2493167 C38.4175982,11.0452416 38.9140698,11.8792338 39.3490402,12.1609322 C39.9082877,12.5263787 40.3445327,12.5187653 40.3445327,12.5187653 C40.3445327,12.5187653 39.6743916,12.1647389 39.8751471,11.4639824 C40.0545525,10.8358712 41.3667926,10.7330893 41.4142729,10.995754 L41.4139542,15.3103709 C40.7826896,15.3027574 38.7607946,15.3715959 37.8487909,17.0966813 C37.2991031,18.1400439 37.3312877,19.3055393 37.918896,20.1274768 C38.3978413,20.7980966 39.3834554,21.6549292 41.079999,21.3656174" id="Fill-6" fill="#FFFFFF"></path>
                            <path d="M57.699689,7.07323084 C57.699689,7.07323084 56.1073472,8.03316252 55.036651,8.66888726 C53.9659548,9.3011225 52.5303934,9.99807223 52.5303934,9.99807223 L52.5303934,16.6620791 L51.5725028,17.4281845 L51.6996479,17.5760127 L52.6336391,16.8264031 L55.561802,19.4616154 L60.651114,15.4477306 L60.530342,15.3027574 L57.7181713,17.499878 L55.4062961,15.3449488 L55.4066148,14.5414104 L60.0501221,11.14041 L57.699689,7.07323084 Z M57.7675635,12.5761835 L55.4062961,14.2977794 L55.4062961,8.56991215 L57.7675635,12.5761835 L57.7675635,12.5761835 Z" id="Fill-7" fill="#FFFFFF"></path>
                            <path d="M64.8131267,19.511103 L62.3180223,17.4465837 L61.222152,18.239019 L61.1106211,18.0829429 L62.225611,17.2717911 L62.225611,11.5020498 C62.2791458,9.12601269 60.0392876,9.71605661 60.1606969,7.19536359 C60.2142317,6.08728648 61.2916198,5.24917033 61.835253,4.9715959 C62.417444,4.67816008 63.047434,4.67816008 63.047434,4.67816008 C63.047434,4.67816008 62.0261301,5.31388482 62.2740472,6.22781845 C62.6561201,7.63694485 65.0760209,7.76256711 65.1215892,9.63992191 L65.1215892,16.1862372 L66.9086321,17.6109078 L67.3783363,17.245144 L67.3783363,10.1579551 L66.4147097,9.20595412 L68.8954745,7.01993655 L71.1614628,9.01942411 L70.2969393,9.95239141 L70.2969393,16.2322352 L72.4192121,17.9763543 L72.796505,17.7358956 L72.796505,10.1769888 L71.8312852,9.27828209 L74.3168299,7.01644705 L76.6404955,8.92806247 L77.5684321,8.10929722 L77.693984,8.25395315 L75.6048518,10.0818204 L75.6048518,16.2433382 L70.2593375,19.5260127 L67.5252384,17.370449 L64.8131267,19.511103" id="Fill-8" fill="#FFFFFF"></path>
                            <path d="M174.163071,7.07323084 C174.163071,7.07323084 172.570411,8.03316252 171.500352,8.66888726 C170.429337,9.3011225 168.993457,9.99807223 168.993457,9.99807223 L168.993457,16.6620791 L168.035567,17.4281845 L168.163349,17.5760127 L169.09734,16.8264031 L172.025822,19.4616154 L177.114496,15.4477306 L176.994362,15.3027574 L174.181554,17.499878 L171.869679,15.3449488 L171.869679,14.5414104 L176.513823,11.14041 L174.163071,7.07323084 Z M174.230946,12.5761835 L171.869679,14.2977794 L171.869679,8.56991215 L174.230946,12.5761835 L174.230946,12.5761835 Z" id="Fill-9" fill="#FFFFFF"></path>
                            <polyline id="Fill-10" fill="#FFFFFF" points="150.271251 9.86102977 150.395847 10.0056857 151.354375 9.18311371 152.77719 10.7863836 152.77719 16.2928258 152.086336 16.9212543 154.303251 19.4156174 156.577843 17.183919 155.643214 16.2204978 155.643214 9.55998048 156.208835 9.11078575 157.781739 10.9383358 157.781739 16.4298682 157.190307 17.0167399 159.277845 19.3550268 161.510374 17.1306247 160.690145 16.2737921 160.668794 9.58662762 161.272017 9.09936554 162.911839 10.8967789 162.911839 16.3578575 162.372349 16.8946071 164.677213 19.3965837 167.771716 16.552001 167.640429 16.4111518 166.889348 17.1001708 165.736756 15.8284041 165.736756 9.59424109 166.849516 8.75263543 166.733524 8.60036603 165.61949 9.44197169 163.514106 7.09226452 160.50341 9.46100537 158.394521 7.17632992 155.486752 9.44197169 153.359063 7.18775012 150.271251 9.86102977"></polyline>
                            <polyline id="Fill-11" fill="#FFFFFF" points="143.971033 9.68940947 144.095947 9.83438263 144.905661 9.13743289 146.172333 10.6299902 146.172333 16.925061 145.27913 17.7019522 145.403726 17.8469253 146.341541 17.0506833 148.384149 19.3965837 151.336212 16.7731088 151.211616 16.6281357 150.342312 17.3897999 149.121846 15.988287 149.121846 9.83438263 150.151117 8.94709614 150.026839 8.80244021 149.048873 9.63992191 146.899196 7.14587604 143.971033 9.68940947"></polyline>
                            <g id="Group-16" transform="translate(130.334372, 0.000000)">
                                <mask id="mask-18" fill="white">
                                    <use xlink:href="#path-17"></use>
                                </mask>
                                <g id="Clip-13"></g>
                                <polyline id="Fill-12" fill="#FFFFFF" mask="url(#mask-18)" points="14.4874823 4.47640312 16.7098141 2.45058565 18.5172512 4.44594924 16.2847223 6.46415325 14.4874823 4.47640312"></polyline>
                                <path d="M11.4987741,0.0171303075 C12.0197825,0.0628111274 12.8368257,0.317862372 13.452476,0.854929234 C14.1063654,1.48716447 14.2551794,2.44646169 14.0260632,3.31852123 C13.8221211,4.0954124 13.5942795,4.49924353 12.7969932,5.0363104 C11.9930151,5.57686676 11.0195101,5.53118594 11.0195101,5.53118594 L11.0195101,8.89729136 L12.6650682,10.2226696 L11.0195101,11.5439239 L11.0195101,16.1294534 C11.0195101,16.1294534 12.6676174,15.1888726 13.690196,13.0827965 C13.690196,13.0827965 13.7325777,12.9682772 13.8275383,12.7512933 C13.9186749,13.3153245 13.8673707,14.4576623 13.225909,15.9235725 C12.7428211,17.0278429 11.863958,18.0902391 10.7623518,18.6958272 C8.80992464,19.7737677 7.34568389,19.8765495 5.77596683,19.5526598 C3.93730109,19.1757931 2.26816224,18.1473402 1.12863561,16.3537335 C0.327525438,15.093387 -0.031603902,13.6236701 0.00217401286,12.0429234 C0.0662245872,8.93916545 2.38511031,6.26239629 5.06280671,5.26439727 C5.38815813,5.14289898 5.51753392,5.06295754 5.98054628,5.02076623 C5.76736302,5.16573939 5.52072051,5.3522694 5.2189499,5.55021962 C4.35697575,6.11393363 3.6180042,7.23723768 3.30253122,8.10168375 L8.49827557,5.79385066 L8.49827557,13.0260127 L4.30822084,15.1162274 C4.7862102,15.7751098 6.23642992,16.7731088 7.47824628,16.9136408 C9.58872863,17.1461689 10.8270397,16.2284285 10.8270397,16.2284285 L10.8270397,11.5439239 L9.19167881,10.2226696 L10.8270397,8.90141532 L10.8270397,5.53118594 C9.93543025,5.4284041 8.85166904,5.13528551 8.21817381,4.97889214 C7.28577589,4.75048804 4.17820773,3.88223524 3.69033992,3.80990727 C3.20247211,3.73757931 2.59988686,3.76041972 2.23565897,4.08430942 C1.87111241,4.41168863 1.6458201,4.98650561 1.80068865,5.5045388 C1.88863869,5.79765739 2.09066886,5.96896047 2.24458143,6.13645681 C2.24458143,6.13645681 2.06453878,6.12122987 1.73982467,5.92708638 C1.15285373,5.57686676 0.706730331,4.89133724 0.653195522,4.04592484 C0.584683714,2.93784773 1.04259752,1.94016593 1.96065575,1.27018058 C2.75857933,0.759760859 3.66038592,0.432064422 4.7097319,0.580844314 C6.23961651,0.797828209 8.29720138,1.65846755 10.1301313,2.09624207 C10.8401048,2.26786237 11.3897925,2.3249634 11.8881761,2.03533431 C12.1211163,1.86783797 12.5299565,1.43735969 12.1956826,0.866349439 C11.8056433,0.196046852 11.0580679,0.211273792 10.4245727,0.0932650073 C10.9697992,-0.0209370425 11.0892966,-0.0209370425 11.4987741,0.0171303075 Z M5.32092096,14.3964373 L5.32092096,7.41234749 L3.21107592,8.34912152 C3.21107592,8.34912152 2.6728599,9.54856027 2.76654582,11.2888726 C2.8407935,12.6485115 3.60430184,14.274939 4.19127277,14.9563446 L5.32092096,14.3964373 L5.32092096,14.3964373 Z" id="Fill-14" fill="#FFFFFF" mask="url(#mask-18)"></path>
                                <path d="M49.4915991,20.3222548 C49.1544573,20.4205954 47.6886233,20.0668863 47.3371418,18.554978 C46.9945827,17.0811371 48.0222598,16.0834553 49.5750879,14.5147633 L47.7421581,12.8464617 L47.7421581,9.66276232 C47.7421581,9.66276232 49.0891321,8.99277696 50.1445326,8.33770132 C51.2002518,7.67881894 52.2798704,6.96664226 52.2798704,6.96664226 C52.2798704,6.96664226 53.0672782,7.95702782 53.9572944,7.87708638 C55.3507927,7.75495364 55.2861048,6.66210347 55.2456351,6.40324549 C55.4833551,6.82579307 56.1200369,8.08265007 53.6717754,10.892655 L55.6656284,12.4959248 L55.6656284,16.6319424 C55.6656284,16.6319424 53.3492919,17.8313812 51.1585074,19.4232308 C51.1585074,19.4232308 49.9354919,17.9002196 48.8737182,18.6276232 C48.1567342,19.1183748 48.4846349,19.9485603 49.4915991,20.3222548 Z M47.7682882,17.1344314 C47.7682882,17.1344314 48.8208207,15.4020498 50.6288952,15.7751098 C52.3633592,16.1329429 52.9653072,17.9570034 52.9653072,17.9570034 L52.9653072,13.7569058 L51.7553568,12.7094192 C50.4265463,14.0389214 48.061455,15.9613226 47.7682882,17.1344314 Z M50.4520391,8.36054173 L50.4520391,11.6698633 L51.5587438,12.6294778 C51.5587438,12.6294778 53.962393,10.7137384 54.8348829,8.93916545 C54.8348829,8.93916545 53.7549456,10.3977794 52.3005833,9.95239141 C51.0833037,9.58313812 50.4520391,8.36054173 50.4520391,8.36054173 L50.4520391,8.36054173 Z" id="Fill-15" fill="#FFFFFF" mask="url(#mask-18)"></path>
                            </g>
                            <path d="M104.988133,9.82264519 L105.886115,9.00039043 L106.014854,9.14504636 L105.140452,9.95239141 L105.140452,16.5291606 C105.140452,16.5291606 103.479279,17.4050268 102.319996,18.0562958 C101.161668,18.7075647 99.9236759,19.4727184 99.9236759,19.4727184 L96.8760157,16.9174475 L96.0701257,17.6143973 L95.9397939,17.4694241 L96.7871097,16.7347243 L96.7871097,9.66276232 L96.7982628,9.66276232 C96.7982628,9.66276232 98.2357361,9.01530015 99.4482358,8.33389458 C100.532953,7.72449976 101.746727,7.01993655 101.746727,7.01993655 L104.988133,9.82264519 Z M99.6786267,15.6187164 L102.254033,17.9379697 L102.254033,10.8393607 L99.6786267,8.46713031 L99.6786267,15.6187164 L99.6786267,15.6187164 Z" id="Fill-17" fill="#FFFFFF"></path>
                            <path d="M110.980526,9.15646657 L112.916064,7.18775012 C112.916064,7.18775012 113.182463,7.41996096 113.431337,7.54177648 C113.57314,7.61029771 114.158836,7.911347 114.696734,7.61791118 C114.987989,7.45802831 115.029733,7.41615422 115.34903,7.11510493 C115.414355,8.64604685 114.676021,9.72367008 113.755095,10.1693753 C113.377802,10.3520986 112.276833,10.7023182 111.124879,9.30492923 L111.124879,16.3803807 L112.350125,17.4583211 L113.372703,16.6163982 L113.490926,16.7651781 L110.28776,19.4267204 L107.850333,17.2184968 L106.973382,18.0407516 L106.829666,17.8884822 L108.165487,16.6890434 L108.17664,10.5805027 L107.15215,9.22879453 L106.271375,10.001879 L106.143911,9.86102977 L109.247018,7.08496828 L110.980526,9.15646657" id="Fill-18" fill="#FFFFFF"></path>
                            <path d="M119.142353,12.1038311 L122.721538,6.92096144 C122.721538,6.92096144 123.193473,7.47706198 124.015614,7.69404588 C125.133472,7.98367496 126.109208,6.90954124 126.109208,6.90954124 C125.922473,8.29582723 125.216642,9.86832601 123.759093,10.1084675 C122.475214,10.3216447 121.280878,9.32776964 121.280878,9.32776964 L121.048575,9.68560273 L126.017752,17.1572718 L127.011652,16.2893363 L127.139753,16.433675 L123.729777,19.4000732 L119.142353,12.1038311" id="Fill-19" fill="#FFFFFF"></path>
                            <path d="M116.185511,5.18445583 C116.185511,4.06495852 115.72473,3.37593948 115.1231,3.42510981 L119.026999,0.695046364 L119.026999,16.1484871 L119.027636,16.1484871 L120.0585,17.229917 L120.839534,16.5558077 L120.962218,16.7007809 L117.816092,19.4349683 L115.684897,17.442777 L114.831527,18.1895315 L114.696734,18.0445583 L116.185511,16.7540752 L116.185511,5.18445583" id="Fill-20" fill="#FFFFFF"></path>
                            <path d="M83.5471231,4.92940459 C83.5468044,3.88604197 83.1210752,3.30361152 82.4314959,3.28806735 C81.43919,3.26522694 81.2040192,4.6591264 81.2040192,4.6591264 C81.2040192,4.6591264 81.0233392,3.58530991 81.9261018,2.61046852 C82.4337265,2.06578819 83.3807828,1.30031723 84.8615938,1.65466081 C86.3908411,2.0239141 86.8251741,3.20431918 86.8251741,4.2476818 L86.8251741,18.623182 C86.8251741,18.623182 87.4029039,18.6920205 87.7993164,18.7798926 C88.2591422,18.8747438 88.6947498,18.9968765 88.6947498,18.9968765 L88.6947498,1.66227428 L88.8849896,1.66227428 L88.8849896,4.00024402 L92.0202811,1.48716447 L94.317498,3.52059541 L95.3885128,2.59904832 L95.5105595,2.74370425 L94.3907897,3.70331869 L94.3907897,17.0700342 C94.3353429,17.9417765 94.1941768,18.829063 93.3669365,19.3394827 C91.5218976,20.4285261 89.2960604,19.1723036 87.3136792,18.8864812 C85.8417907,18.6691801 83.5315088,18.3916057 82.9515483,19.7353831 C82.7622645,20.1772816 82.7753296,20.8586872 83.44324,21.3040752 C84.7828849,22.1958028 90.7481921,19.8080283 92.7943052,20.7559053 C94.6597384,21.6200342 94.6527279,22.9876037 94.3646596,23.9281845 C93.8796598,25.6913372 91.6436255,26 91.6436255,26 C91.6436255,26 92.7372652,25.3674475 92.4256161,24.3202782 C92.267561,23.791142 91.9065197,23.6423621 90.7357644,23.7721083 C88.17884,24.0614202 85.122576,25.2948023 83.068815,24.4386042 C82.0102279,24.0005124 81.2616966,22.6827477 81.334351,21.3884578 C81.3869298,19.5260127 83.5471231,18.7909956 83.5471231,18.7909956 L83.5464858,11.9020742 C83.4846658,11.627672 82.3320741,11.7 82.0803331,12.206613 C81.6969856,12.9724012 82.5564105,13.3226208 82.5564105,13.3226208 C82.5564105,13.3226208 81.8438876,13.4292094 81.2467196,12.7436798 C80.9561021,12.4083699 80.3487369,11.2355783 81.1383754,10.1503416 C81.7874849,9.25544168 82.5656516,9.09936554 83.5471231,8.99277696 L83.5471231,4.92940459 Z M88.8849896,19.0501708 C88.8849896,19.0501708 89.7947627,19.2899951 90.4578932,18.7491215 C91.1949528,18.1435334 91.1175186,17.2949488 91.1175186,17.2949488 L91.1175186,11.9401415 C91.1175186,11.9401415 90.6901961,11.3916545 90.0111325,11.3916545 C89.3323876,11.3916545 88.8849896,11.9591752 88.8849896,11.9591752 L88.8849896,19.0501708 Z M91.1175186,4.99411908 L89.6115334,3.67667155 L88.8849896,4.2476818 L88.8849896,9.20976086 C88.8849896,9.20976086 89.3323876,9.77315764 90.0111325,9.77315764 C90.6901961,9.77315764 91.1175186,9.23260127 91.1175186,9.23260127 L91.1175186,4.99411908 Z M91.1175186,9.5295266 C91.1175186,9.5295266 90.6863722,10.0171059 90.0076273,10.0171059 C89.3288824,10.0171059 88.8849896,9.52571986 88.8849896,9.52571986 L88.8849896,11.6432162 C88.8849896,11.6432162 89.3288824,11.1518302 90.0076273,11.1518302 C90.6863722,11.1518302 91.1175186,11.6162518 91.1175186,11.6162518 L91.1175186,9.5295266 L91.1175186,9.5295266 Z" id="Fill-21" fill="#FFFFFF"></path>
                        </g>
                    </g>
                </g>
            </g>
        </g>
    </g>
</svg>